<?xml version="1.0" encoding="UTF-8"?>
<!DOCTYPE svg PUBLIC "-//W3C//DTD SVG 1.1//EN" "http://www.w3.org/Graphics/SVG/1.1/DTD/svg11.dtd">
<!-- Creator: CorelDRAW 2018 (64-Bit) -->
<svg xmlns="http://www.w3.org/2000/svg" xml:space="preserve" width="15.8758mm" height="21.1674mm" version="1.1" style="shape-rendering:geometricPrecision; text-rendering:geometricPrecision; image-rendering:optimizeQuality; fill-rule:evenodd; clip-rule:evenodd"
viewBox="0 0 479.89 639.85"
 xmlns:xlink="http://www.w3.org/1999/xlink">
 <defs>
  <style type="text/css">
   <![CDATA[
    .fil0 {fill:#452E74}
   ]]>
  </style>
 </defs>
 <g id="Layer_x0020_1">
  <metadata id="CorelCorpID_0Corel-Layer"/>
  <path class="fil0" d="M187.46 403.65c0,-22.38 7.05,-39.13 28,-50.73 19.31,-10.71 44.86,-6.86 62.29,10.42 29.49,29.25 9.17,76.02 -11.56,81.56 0,18.33 -0.11,36.67 0,55 0.22,38.49 -31.18,34.66 -39.5,29.47 -10.33,-6.44 -13.12,-14.6 -13.01,-28.22 0.13,-18.74 0,-37.51 0,-56.25 -12.24,-3.26 -26.23,-24.92 -26.23,-41.25zm-53.75 -244.94c0,-57.28 47.14,-104.98 107.48,-104.98 57.01,0 104.98,47.97 104.98,104.98l0 81.23 -212.47 0 0 -81.23zm-53.73 -6.24l0 87.47 -25 0c-26.75,0 -54.98,28.22 -54.98,54.98l0 289.95c0,13.07 8.32,28.88 17.21,37.77 1.4,1.4 5.89,4.88 7.6,6.15 7.64,5.65 19.88,11.05 30.17,11.05l369.93 0c7.27,0 16.38,-3.2 21.7,-5.78l16.69 -12.06c9.78,-10.79 16.6,-24.06 16.6,-39.65l0 -287.43c0,-26.75 -28.22,-54.98 -54.98,-54.98l-25 0 0 -87.47c0,-78.45 -74.03,-152.47 -152.48,-152.47 -32.84,0 -47.07,2.1 -76.22,15.02 -50.25,22.25 -91.23,81.29 -91.23,137.46z"/>
 </g>
</svg>
