<?xml version="1.0" encoding="UTF-8"?>
<!DOCTYPE svg PUBLIC "-//W3C//DTD SVG 1.1//EN" "http://www.w3.org/Graphics/SVG/1.1/DTD/svg11.dtd">
<!-- Creator: CorelDRAW 2018 (64-Bit) -->
<svg xmlns="http://www.w3.org/2000/svg" xml:space="preserve" width="15.8748mm" height="21.1663mm" version="1.1" style="shape-rendering:geometricPrecision; text-rendering:geometricPrecision; image-rendering:optimizeQuality; fill-rule:evenodd; clip-rule:evenodd"
viewBox="0 0 211.07 281.43"
 xmlns:xlink="http://www.w3.org/1999/xlink">
 <defs>
  <style type="text/css">
   <![CDATA[
    .fil0 {fill:#999999}
   ]]>
  </style>
 </defs>
 <g id="Layer_x0020_1">
  <metadata id="CorelCorpID_0Corel-Layer"/>
  <path class="fil0" d="M45.61 228.67l119.85 0c13.73,0 13.73,17.58 0,17.58l-119.85 0c-13.55,0 -13.99,-17.58 0,-17.58zm95.1 -158.32l70.36 0 -70.09 -70.36 -0.13 0 -0.13 70.36zm-36.95 44.96c0,-13.37 -8.76,-21.3 -30.48,-29.51l-5.42 -2.08c-8.35,-3.2 -10.86,-7.37 -10.86,-11.96 0,-6.14 4.88,-10.43 13.37,-10.43 6.11,0 9.45,2.22 13.35,6.25 1.81,1.95 4.61,3.76 7.52,3.76 4.46,0 7.79,-3.34 7.79,-7.52 0,-2.78 -1.39,-5.28 -4.03,-8.33 -4.32,-4.75 -9.88,-8.64 -17.82,-10.03l0 -6.27c0,-4.3 -3.34,-7.93 -7.66,-7.93 -4.43,0 -7.93,3.63 -7.93,7.93l0 6.4c-13.5,2.64 -23.24,12.12 -23.24,26.02 0,14.2 10.59,21.16 24.92,26.74l5.85 2.22c10.7,4.19 15.59,7.52 15.59,14.76 0,9.47 -9.32,12.12 -16.15,12.12 -5.29,0 -11.82,-1.95 -16.71,-8.08 -1.95,-2.64 -4.72,-5.29 -8.91,-5.29 -5.15,0 -7.64,4.03 -7.64,7.93 0,4.19 2.49,7.39 3.9,9.05 5.42,6.83 13.77,10.99 22.39,12.54l0 0.4 0 5.71c0,4.32 3.49,7.93 7.93,7.93 4.32,0 7.66,-3.61 7.66,-7.93l0 -5.71 0 -0.69c13.64,-2.78 26.58,-12.09 26.58,-27.97zm-58.15 78.17l119.85 0c13.73,0 13.73,17.58 0,17.58l-119.85 0c-13.55,0 -13.99,-17.58 0,-17.58zm87.96 -35.18l31.89 0c13.73,0 13.73,17.58 0,17.58l-31.89 0c-13.57,0 -14.02,-17.58 0,-17.58zm0 -35.18l31.89 0c13.73,0 13.73,17.58 0,17.58l-31.89 0c-13.57,0 -14.02,-17.58 0,-17.58zm-133.57 -106.66l0 248.47c0,8.82 8.67,16.48 15.94,16.48l179.18 0c7.64,0 15.94,-8.31 15.94,-15.94l0 -177.53 -68.16 0c-12.43,0 -19.77,-7.37 -19.77,-19.8l0 -68.16 -106.66 0c-8.46,0 -16.48,8.02 -16.48,16.48z"/>
 </g>
</svg>
