<?xml version="1.0" encoding="UTF-8"?>
<!DOCTYPE svg PUBLIC "-//W3C//DTD SVG 1.1//EN" "http://www.w3.org/Graphics/SVG/1.1/DTD/svg11.dtd">
<!-- Creator: CorelDRAW 2018 (64-Bit) -->
<svg xmlns="http://www.w3.org/2000/svg" xml:space="preserve" width="17.7336mm" height="21.1655mm" version="1.1" style="shape-rendering:geometricPrecision; text-rendering:geometricPrecision; image-rendering:optimizeQuality; fill-rule:evenodd; clip-rule:evenodd"
viewBox="0 0 246.77 294.53"
 xmlns:xlink="http://www.w3.org/1999/xlink">
 <defs>
  <style type="text/css">
   <![CDATA[
    .fil0 {fill:#FF5914}
   ]]>
  </style>
 </defs>
 <g id="Layer_x0020_1">
  <metadata id="CorelCorpID_0Corel-Layer"/>
  <path class="fil0" d="M123.39 294.53c-0.1,0 -0.23,0 -0.33,0 -20.85,0 -40.42,-10.06 -52.57,-27 -46.76,-64.51 -70.49,-113 -70.49,-144.15 0,-68.13 55.25,-123.38 123.39,-123.38 68.13,0 123.39,55.25 123.39,123.39 0,31.14 -23.72,79.64 -70.49,144.15 -12.15,16.93 -31.72,27 -52.57,27 -0.1,0 -0.23,0 -0.33,0l0 0zm0 -221.1c13.67,0 26.1,5.51 35.12,14.39 9.08,8.95 14.7,21.3 14.7,34.91 0,13.62 -5.62,25.96 -14.7,34.91 -9.02,8.88 -21.45,14.39 -35.12,14.39 -13.67,0 -26.1,-5.51 -35.12,-14.39 -9.08,-8.95 -14.7,-21.3 -14.7,-34.91 0,-13.62 5.62,-25.96 14.7,-34.91 9.02,-8.88 21.45,-14.39 35.12,-14.39zm16.13 33.69c-4.09,-4.03 -9.8,-6.53 -16.13,-6.53 -6.33,0 -12.04,2.5 -16.13,6.53 -4.03,3.98 -6.53,9.5 -6.53,15.61 0,6.12 2.5,11.64 6.53,15.61 4.09,4.03 9.8,6.53 16.13,6.53 6.33,0 12.04,-2.5 16.13,-6.53 4.03,-3.98 6.53,-9.5 6.53,-15.61 0,-6.11 -2.5,-11.64 -6.53,-15.61zm-16.13 -80.33c-53.33,0.05 -96.58,43.29 -96.62,96.63 0,24.66 23.23,70.28 65.39,128.43 7.25,9.99 18.88,15.92 31.23,15.92 12.35,0 23.97,-5.93 31.23,-15.93 42.16,-58.15 65.39,-103.76 65.39,-128.43 -0.05,-53.33 -43.29,-96.57 -96.63,-96.62l0.01 0z"/>
 </g>
</svg>
