<?xml version="1.0" encoding="UTF-8"?>
<!DOCTYPE svg PUBLIC "-//W3C//DTD SVG 1.1//EN" "http://www.w3.org/Graphics/SVG/1.1/DTD/svg11.dtd">
<!-- Creator: CorelDRAW 2018 (64-Bit) -->
<svg xmlns="http://www.w3.org/2000/svg" xml:space="preserve" width="17.6529mm" height="21.1664mm" version="1.1" style="shape-rendering:geometricPrecision; text-rendering:geometricPrecision; image-rendering:optimizeQuality; fill-rule:evenodd; clip-rule:evenodd"
viewBox="0 0 268.89 322.41"
 xmlns:xlink="http://www.w3.org/1999/xlink">
 <defs>
  <style type="text/css">
   <![CDATA[
    .fil0 {fill:#452E74}
   ]]>
  </style>
 </defs>
 <g id="Layer_x0020_1">
  <metadata id="CorelCorpID_0Corel-Layer"/>
  <g id="_2558382906128">
   <path class="fil0" d="M-0 258.81c0,22.12 1.36,36.92 19.03,51.49 3.52,2.9 8.29,5.81 12.63,7.53 6.12,2.42 13.58,4.58 21.86,4.58l161.84 0c7.92,0 15.88,-1.94 21.44,-4.38 5.9,-2.6 11.45,-5.56 16.2,-10.25 16.49,-16.33 15.88,-30.55 15.88,-51.49 0,-12.81 -2.31,-26.54 -4.78,-37.41 -5.2,-22.78 -16.52,-46.56 -38.44,-57.28 -8.21,-4.02 -17.97,-6.07 -27.93,-6.07 -13.87,0 -44.37,43.27 -98.88,15.12 -8.98,-4.64 -19.37,-15.12 -29.59,-15.12 -37.23,0 -58.26,31.73 -64.6,64.5 -1.19,6.15 -2.47,12.07 -3.23,18.18 -0.84,6.77 -1.43,13.37 -1.43,20.6zm54.79 -185.13c0,9.9 -0.16,14.25 2.38,24.06 0.73,2.82 1.34,4.46 2.25,7.2l4.31 9.55c19.02,34.89 61.15,50.85 100.37,34.49 5.09,-2.12 13.76,-7.51 17.73,-11.23 8.9,-8.32 15.88,-15.26 21.36,-27.12 15.83,-34.25 4.88,-73.31 -24.71,-95.78 -7.4,-5.63 -16.52,-9.97 -25.45,-12.33 -5.38,-1.41 -11.14,-2.26 -16.97,-2.51l-7.47 0c-10.47,0.45 -20.85,2.8 -29.52,7.13 -24.59,12.27 -44.28,38.41 -44.28,66.55z"/>
   <path class="fil0" d="M134.45 322.41l80.92 0c7.92,0 15.88,-1.94 21.44,-4.38 5.9,-2.6 11.45,-5.56 16.2,-10.25 16.49,-16.33 15.88,-30.55 15.88,-51.49 0,-12.81 -2.31,-26.54 -4.78,-37.41 -5.2,-22.78 -16.52,-46.56 -38.44,-57.28 -8.21,-4.02 -17.97,-6.07 -27.93,-6.07 -10.5,0 -30.54,24.79 -63.29,24.63l0 142.25zm0 -167.02l0 -155.39 1.61 0c5.83,0.25 11.59,1.1 16.97,2.51 8.93,2.36 18.05,6.7 25.45,12.33 29.59,22.48 40.54,61.54 24.71,95.78 -5.48,11.86 -12.46,18.8 -21.36,27.12 -3.98,3.72 -12.64,9.11 -17.73,11.23 -9.84,4.1 -19.86,6.16 -29.65,6.42z"/>
  </g>
 </g>
</svg>
