<?xml version="1.0" encoding="UTF-8"?>
<!DOCTYPE svg PUBLIC "-//W3C//DTD SVG 1.1//EN" "http://www.w3.org/Graphics/SVG/1.1/DTD/svg11.dtd">
<!-- Creator: CorelDRAW 2018 (64-Bit) -->
<svg xmlns="http://www.w3.org/2000/svg" xml:space="preserve" width="17.6532mm" height="21.1667mm" version="1.1" style="shape-rendering:geometricPrecision; text-rendering:geometricPrecision; image-rendering:optimizeQuality; fill-rule:evenodd; clip-rule:evenodd"
viewBox="0 0 687.16 823.92"
 xmlns:xlink="http://www.w3.org/1999/xlink">
 <defs>
  <style type="text/css">
   <![CDATA[
    .fil0 {fill:white}
   ]]>
  </style>
 </defs>
 <g id="Layer_x0020_1">
  <metadata id="CorelCorpID_0Corel-Layer"/>
  <path class="fil0" d="M0 661.39c0,56.53 3.46,94.35 48.63,131.59 8.99,7.42 21.18,14.84 32.28,19.23 15.64,6.19 34.69,11.7 55.87,11.7l413.59 0c20.24,0 40.58,-4.94 54.79,-11.19 15.08,-6.65 29.27,-14.2 41.4,-26.19 42.15,-41.73 40.6,-78.07 40.6,-131.58 0,-32.74 -5.9,-67.83 -12.22,-95.6 -13.28,-58.21 -42.22,-118.99 -98.24,-146.37 -20.98,-10.26 -45.92,-15.52 -71.39,-15.52 -35.45,0 -113.39,110.58 -252.68,38.65 -22.95,-11.85 -49.49,-38.65 -75.62,-38.65 -95.15,0 -148.89,81.09 -165.08,164.82 -3.04,15.72 -6.32,30.85 -8.26,46.45 -2.14,17.29 -3.66,34.18 -3.66,52.65zm140 -473.11c0,25.3 -0.4,36.41 6.08,61.49 1.87,7.22 3.43,11.41 5.75,18.39l11.01 24.4c48.59,89.17 156.27,129.94 256.51,88.14 13,-5.42 35.15,-19.19 45.32,-28.7 22.75,-21.26 40.57,-39 54.59,-69.31 40.47,-87.52 12.48,-187.34 -63.14,-244.78 -18.92,-14.4 -42.22,-25.48 -65.05,-31.51 -13.76,-3.61 -28.47,-5.77 -43.38,-6.41l-19.09 0c-26.77,1.15 -53.29,7.16 -75.45,18.21 -62.83,31.36 -113.15,98.15 -113.15,170.08z"/>
 </g>
</svg>
