<?xml version="1.0" encoding="UTF-8"?>
<!DOCTYPE svg PUBLIC "-//W3C//DTD SVG 1.1//EN" "http://www.w3.org/Graphics/SVG/1.1/DTD/svg11.dtd">
<!-- Creator: CorelDRAW 2018 (64-Bit) -->
<svg xmlns="http://www.w3.org/2000/svg" xml:space="preserve" width="21.1666mm" height="21.1666mm" version="1.1" style="shape-rendering:geometricPrecision; text-rendering:geometricPrecision; image-rendering:optimizeQuality; fill-rule:evenodd; clip-rule:evenodd"
viewBox="0 0 3670.77 3670.77"
 xmlns:xlink="http://www.w3.org/1999/xlink">
 <defs>
  <style type="text/css">
   <![CDATA[
    .fil0 {fill:#452E74}
   ]]>
  </style>
 </defs>
 <g id="Layer_x0020_1">
  <metadata id="CorelCorpID_0Corel-Layer"/>
  <path class="fil0" d="M2150.88 3011.17l-673.99 0c-146.84,0 -134.3,-207.78 -21.45,-207.78l717 0c108.39,0 125.4,207.78 -21.56,207.78zm788.54 -2659.87l0 329.87 731.36 0 0 -344.24c0,-162.25 -164.75,-336.93 -344.11,-336.93 -115.59,0 -211.54,29.2 -285.26,109.19 -48.14,52.37 -101.99,144.1 -101.99,242.12zm0 2652.8c0,46.1 124.71,297.35 153.11,355.98l119.45 260.5c29.55,47.92 63.21,50.19 107.49,50.19 64.58,0 97.9,-81.23 118.78,-132.01 25.91,-62.64 57.63,-119.68 80.9,-177.19 31.94,-78.73 151.62,-299.62 151.62,-364.66 0,-30.59 -56.93,-184.28 -71.76,-215.2l-587.83 0c-13.23,56.93 -71.76,166.12 -71.76,222.38zm0 -544.93c0,84.99 65.03,114.77 150.6,114.77 104.52,0 469.3,16.22 530.8,-21.45 21.56,-13.11 49.96,-44.95 49.96,-78.94l0 -1577.42 -731.36 0 0 1563.04zm-1476.9 -336.94l688.37 0c97.43,0 142.73,108.16 77.57,177.88 -18.71,19.98 -33.54,30.02 -70.51,30.02l-702.5 0c-120.6,0 -113.64,-207.9 7.08,-207.9zm-724.07 336.94c-85.69,0 -113.07,-52.15 -166.69,-105.77 -36.28,-36.28 -105.65,-87.18 -105.65,-152.33 0,-66.18 65.26,-114.32 123.79,-102.46 66.98,13.7 87.18,70.86 134.3,102.46 30.8,-8.2 187.47,-176.74 213.24,-202.52 32.07,-32.05 65.85,-82.83 128.14,-74.62 56.93,7.42 97.78,59.92 91.97,115.93 -6.4,62.29 -144.22,176.74 -191.46,223.98 -41.88,41.88 -174.57,195.34 -227.63,195.34zm724.07 -989.36l688.37 0c146.04,0 137.94,207.9 7.06,207.9l-702.5 0c-56.24,0 -90.02,-57.06 -88.88,-106.57 1.14,-51.25 47.47,-101.33 95.95,-101.33zm-724.07 336.94c-85.69,0 -113.07,-52.15 -166.69,-105.77 -36.28,-36.3 -105.65,-87.18 -105.65,-152.33 0,-66.18 65.26,-114.32 123.79,-102.46 66.98,13.58 87.18,70.86 134.3,102.46 26.59,-7.08 37.42,-26.59 55.56,-44.83 19.51,-19.74 34.01,-34.11 53.74,-53.74 71.66,-71.66 160.99,-187.92 232.07,-178.68 56.36,7.42 98.24,60.13 92.07,116.04 -6.83,62.52 -144.22,176.63 -191.56,223.98 -41.88,41.88 -174.57,195.34 -227.63,195.34zm724.07 -989.36l688.37 0c146.04,0 137.94,207.88 7.06,207.88l-702.5 0c-115.81,0 -118.78,-207.88 7.08,-207.88zm-724.07 336.94c-85.69,0 -113.07,-52.15 -166.69,-105.77 -36.28,-36.3 -105.65,-87.18 -105.65,-152.44 0,-66.07 65.26,-114.22 123.79,-102.35 66.98,13.58 87.18,70.96 134.3,102.35 30.8,-8.22 187.47,-176.74 213.24,-202.52 32.07,-31.96 65.85,-82.72 128.14,-74.62 55.44,7.3 99.84,60.35 91.97,115.92 -9.02,62.76 -143.54,176.06 -191.46,223.98 -41.88,42 -174.57,195.46 -227.63,195.46zm-738.43 -1061.12l0 3484.34c0,44.05 49.29,93.21 93.21,93.21l2545.21 0c43.93,0 93.21,-49.17 93.21,-93.21l0 -3484.34c0,-43.93 -49.29,-93.21 -93.21,-93.21l-2545.21 0c-43.93,0 -93.21,49.29 -93.21,93.21z"/>
 </g>
</svg>
