<?xml version="1.0" encoding="UTF-8"?>
<!DOCTYPE svg PUBLIC "-//W3C//DTD SVG 1.1//EN" "http://www.w3.org/Graphics/SVG/1.1/DTD/svg11.dtd">
<!-- Creator: CorelDRAW 2018 (64-Bit) -->
<svg xmlns="http://www.w3.org/2000/svg" xml:space="preserve" width="19.8712mm" height="21.1674mm" version="1.1" style="shape-rendering:geometricPrecision; text-rendering:geometricPrecision; image-rendering:optimizeQuality; fill-rule:evenodd; clip-rule:evenodd"
viewBox="0 0 1773.17 1888.84"
 xmlns:xlink="http://www.w3.org/1999/xlink">
 <defs>
  <style type="text/css">
   <![CDATA[
    .fil0 {fill:#452E74;fill-rule:nonzero}
   ]]>
  </style>
 </defs>
 <g id="Layer_x0020_1">
  <metadata id="CorelCorpID_0Corel-Layer"/>
  <path class="fil0" d="M285.39 169.73c-14.04,14.66 -23.5,33.83 -23.5,51.87l0 126.29 41.23 0c22.86,0 41.7,9.49 54.63,23.7 6.12,6.81 10.95,14.66 14.19,23.03 3.29,8.47 5.03,17.48 5.03,26.47 0,18.77 -7.35,37.85 -23.67,52.67 -23.81,21.7 -50.76,20.97 -83.88,20.05l-7.52 -0.18 0 202.06 21.85 0c47.85,0 74.78,18.41 86.48,42.08 4.7,9.53 6.84,19.89 6.81,30.17 -0.05,10.15 -2.2,20.26 -6.01,29.49 -10.2,24.6 -32.62,43.96 -60.24,43.96l-48.88 0 0 206.04 48.88 0c16.86,0 33.63,9.24 46.09,22.58 12.49,13.36 20.97,31.28 20.97,48.3 0,73.49 -70.41,75.23 -115.94,74.87l0 202.15 41.23 0c20.11,0 39.01,8.73 52.67,22.38 6.57,6.63 11.98,14.39 15.72,22.84 3.81,8.6 5.96,18.02 5.96,27.72 0,17.63 -6.93,36.11 -23.51,52.69 -22.01,22.01 -52.1,21.18 -85.35,20.27l-6.71 -0.17 0 126.16c0,18.04 9.47,37.21 23.5,51.87 13.65,14.26 31.4,24.03 48.58,24.03l1221.44 0c16.61,0 34.47,-9.64 48.36,-23.53 14.03,-14.09 23.71,-32.09 23.71,-48.54l0 -1453.29c0,-16.8 -9.53,-34.76 -23.42,-48.65 -13.89,-13.89 -31.85,-23.42 -48.65,-23.42l-1221.44 0c-17.18,0 -34.93,9.77 -48.58,24.03zm602.92 371.95c-28.39,28.59 -46.65,67.97 -46.65,112.91 0,25.68 7.12,51.59 19.57,74.61 12.56,23.16 30.5,43.39 51.92,57.47 4.21,2.71 9.33,5.88 14.53,8.75 3.64,2.04 7.3,3.89 10.57,5.17 52.36,20.65 99.9,16.23 137.58,-3.27 25.05,-12.95 45.89,-32.56 61.03,-55.86 15.14,-23.33 24.57,-50.36 26.72,-78.06 3.28,-41.95 -10.07,-85.6 -45.26,-120.57 -35.02,-34.76 -75.73,-49.85 -114.91,-49.85 -21.67,0 -42.89,4.58 -62.4,12.9 -19.6,8.38 -37.6,20.6 -52.69,35.8zm-188.42 136.08l0 -46.46c0,-18.09 3.61,-38.13 8.83,-57.15 6.52,-23.73 15.69,-45.99 23.55,-60.94 7.1,-13.53 13.47,-24.26 20.52,-34.15 7.16,-10 15.01,-19.2 25.01,-29.59l17.48 -18.37c25.65,-24.02 58.17,-46.45 96.69,-61.89 32.7,-13.12 69.79,-21.31 110.67,-21.31 88.24,0 161.81,34.87 214.65,88.23 29.01,29.3 51.78,64.24 67.26,102.01 15.53,37.89 23.8,78.59 23.8,119.39 0,74.13 -27.05,148.87 -86.92,208.15 -35.79,35.44 -70.45,58.35 -108.82,72.46 -38.17,14.03 -79.6,19.2 -129.23,19.2 -69.77,0 -141.02,-35.39 -194.48,-88.08 -53.09,-52.31 -89.01,-122.01 -89.01,-191.49zm-23.76 717.57l654.04 0c-14.43,-54.69 -35.91,-100.47 -66.3,-138.53 -33.27,-41.59 -77.45,-74.29 -134.99,-99.58 -54.82,-24.07 -120.69,-30.11 -183.6,-19.51 -61.66,10.39 -120.34,36.77 -162.78,77.76 -26.73,25.8 -57.67,62.53 -79.51,102.25 -14,25.49 -24.19,52.13 -26.86,77.6zm732.4 145.61l-811.67 0c-44,0 -63.36,-24.25 -70.49,-55.99 -6.32,-28.29 -1.91,-62.07 2.44,-87.8 10.11,-59.88 29.72,-116.63 58.39,-167.47 27.92,-49.6 64.52,-93.69 109.21,-129.71 50.54,-40.74 99.31,-68.36 151.92,-85.81 52.58,-17.45 108.58,-24.69 173.67,-24.69 67.27,0 132.67,17.61 191.73,47.32 63.34,31.87 119.45,77.75 162.8,130.82 4.86,5.96 8.98,11.45 12.9,17.03l12.06 17.83c25.04,37.62 56.93,107.6 72.8,172.99 8.29,34.29 12.27,67.63 8.76,94.99 -3.89,30.21 -16.69,53.59 -42.12,64.41 -9.29,3.94 -20.04,6.09 -32.41,6.09zm-1292.35 -1193.18l0 -118.39c0,-19.17 2.17,-36.05 5.83,-51.55 3.61,-15.29 8.75,-29.19 14.71,-42.52 11.79,-26.24 27.08,-48.27 45.77,-66.91 18.56,-18.53 40.51,-33.7 65.78,-46.39 12.89,-6.45 27.96,-12.32 44.32,-16.34 14.35,-3.49 29.63,-5.66 45.29,-5.66l1213.6 0c58.22,0 113.67,26.34 154.46,67.12 40.88,40.82 67.23,96.28 67.23,154.48l0 1445.63c0,58.02 -26.44,113.49 -67.3,154.34 -40.9,40.83 -96.36,67.26 -154.39,67.26l-1213.6 0c-59.63,0 -114.88,-26.86 -155.27,-68.73 -40.7,-42.21 -66.43,-99.83 -66.43,-160.64l0 -118.41 -12.06 0.21c-43.25,0 -103.88,-6.26 -103.88,-67.3 0,-80.67 62.09,-79.61 114.71,-78.75l1.23 0.02 0 -202.1c-43.6,0.18 -115.94,-2.23 -115.94,-67.06 0,-71.26 43.36,-79.19 92.32,-79.19l23.62 0.44 0 -205.78 -20.97 0.43c-45.55,0 -94.97,-7.5 -94.97,-71.46 0,-73.99 65.27,-75.15 115.94,-74.83l0 -202.18 -41.12 0c-23.61,0 -42.89,-9.72 -56.02,-24.25 -6.09,-6.71 -10.85,-14.55 -14.07,-22.94 -3.25,-8.43 -4.97,-17.36 -4.97,-26.24 0,-18.93 7.5,-38.17 24.05,-53.14 23,-20.93 53.75,-20.14 86.34,-19.3l5.79 0.13z"/>
 </g>
</svg>
