<?xml version="1.0" encoding="UTF-8"?>
<!DOCTYPE svg PUBLIC "-//W3C//DTD SVG 1.1//EN" "http://www.w3.org/Graphics/SVG/1.1/DTD/svg11.dtd">
<!-- Creator: CorelDRAW 2018 (64-Bit) -->
<svg xmlns="http://www.w3.org/2000/svg" xml:space="preserve" width="21.1667mm" height="21.1667mm" version="1.1" style="shape-rendering:geometricPrecision; text-rendering:geometricPrecision; image-rendering:optimizeQuality; fill-rule:evenodd; clip-rule:evenodd"
viewBox="0 0 1181.51 1181.51"
 xmlns:xlink="http://www.w3.org/1999/xlink">
 <defs>
  <style type="text/css">
   <![CDATA[
    .fil0 {fill:#452E74;fill-rule:nonzero}
   ]]>
  </style>
 </defs>
 <g id="Layer_x0020_1">
  <metadata id="CorelCorpID_0Corel-Layer"/>
  <path class="fil0" d="M975.8 582.51c-1.48,3.88 -2.25,7.37 -2.13,9.2l0.07 0.37c1.13,7.35 4.83,14.3 10.26,19.16l0.37 0.3c4.99,4.34 11.44,6.93 18.63,6.45 13.11,-0.88 20.9,-8.4 23.86,-17.52 1.19,-3.68 1.64,-7.64 1.38,-11.55 -0.25,-3.86 -1.24,-7.71 -2.91,-11.22 -4.11,-8.64 -12.67,-15.02 -25.17,-14.18 -3.83,0.25 -7.14,1.19 -10.05,2.66l-0.28 0.15c-3.05,1.59 -5.78,3.81 -8.26,6.45 -2.39,2.55 -4.33,6.03 -5.68,9.46l-0.1 0.28zm-330.26 459.78l-109.57 0c-14.73,0 -27.4,1.59 -38.54,4.69 -11.03,3.06 -20.71,7.67 -29.56,13.69 -5.68,3.85 -11.14,8.96 -16.04,14.64 -5.39,6.24 -10.1,13.15 -13.66,19.82 -0.95,1.78 -1.64,3.41 -2.26,4.97l309.31 0 -0.64 -1.66c-1.59,-4.18 -2.37,-6.21 -10.4,-17.45l-0.28 -0.37c-2.45,-3.41 -6.16,-7.56 -10.14,-11.4 -3.83,-3.7 -7.92,-7.12 -11.36,-9.36 -8.72,-5.68 -18.24,-10.08 -29.05,-13.03 -10.9,-2.98 -23.32,-4.54 -37.8,-4.54zm-80.56 -322.85c-1.51,3.92 -2.27,7.45 -2.12,9.25 0.46,2.82 2.92,8.89 3.99,11.98 3.83,7.39 10.15,11.68 17.04,13.24 4.69,1.06 9.71,0.88 14.43,-0.4 4.65,-1.23 8.98,-3.62 12.39,-6.95 4.86,-4.77 7.87,-11.65 7.29,-20.28 -0.48,-7.29 -3.83,-13.71 -8.75,-18.34 -2.72,-2.56 -5.94,-4.58 -9.38,-5.88 -3.39,-1.28 -7.07,-1.87 -10.77,-1.63 -6.23,0.41 -12.69,3.28 -18.34,9.28 -2.45,2.61 -4.42,6.2 -5.78,9.73zm-83.39 15.11l0 -13.7c0,-20.92 9.83,-43.16 23.41,-60.8 13.05,-16.97 29.86,-29.91 45.07,-33.65l0 -174.4c-9.67,13.94 -23.61,35.29 -32.03,48.19l-6.31 9.66c-41.86,62.78 -83.14,127.08 -126.16,188.94 -5.6,8.03 -13.15,18.81 -15.91,25.5 1.07,1.35 2.08,2.42 3.15,3.57 1.43,1.54 2.98,3.2 4.87,5.55 14.29,17.62 35.4,48.55 47.82,67.99 6.35,10.05 14.33,26.05 21.88,42.73 8.72,19.29 16.95,39.7 21.43,52.97 6.46,19.16 10.49,37.1 14.85,56.55l2.37 10.51c7.55,-1.78 14.76,-3.26 24.85,-3.26 11.49,0 22.98,-0.18 35.89,-0.37 48.43,-0.74 115.48,-1.77 148.67,3.86l2.4 -10.59c4.37,-19.5 8.41,-37.47 14.88,-56.68 7.66,-22.72 16.47,-43.9 26.58,-64.21 10.1,-20.31 21.59,-39.91 34.61,-59.45 9.25,-13.9 20.67,-27.85 29.18,-38.25l8.6 -10.68c-10.43,-20.29 -95.21,-145.63 -129.46,-196.25l-13.3 -19.7 -24.67 -37.04 -4.45 -6.92c-2.5,-3.92 -5.47,-8.6 -8.37,-12.92l0 174.75c6.56,1.69 13.15,5.14 19.31,9.39 10.84,7.46 20.56,17.49 26.45,24.44 9.07,10.68 14.79,22.34 18.2,34.9 3.35,12.41 4.5,25.53 4.5,39.39 0,25.65 -12.79,51.29 -31.91,70.4 -19.12,19.12 -44.76,31.92 -70.4,31.92l-13.7 0c-25.65,0 -51.28,-12.79 -70.4,-31.92 -19.12,-19.15 -31.91,-44.78 -31.91,-70.4zm-193.87 21.85c-6.55,-9.14 -11.55,-19.2 -11.55,-28.7 0,-14.65 6.18,-23.37 12.5,-32.27 90.45,-129.58 177.54,-265.59 265.16,-397.69 4.34,-6.51 9.47,-11.66 15.01,-15.3 6.81,-4.48 14.26,-6.75 21.77,-6.73 7.54,0.02 15.08,2.33 22.04,6.96 5.7,3.78 11.05,9.17 15.69,16.14l243.04 364.62c3.34,5.01 6.8,9.89 10.13,14.56 20.74,29.15 37.25,52.41 10.07,80.97 -29.03,30.51 -55.24,66.44 -75.56,105.2 -18.82,35.89 -32.62,74.26 -38.93,113l-1.27 7.66c-1.89,11.32 -2.72,16.3 -1.92,18.68 0.49,1.45 2.43,3.18 5.88,6.23 3.12,2.76 7.23,6.4 12.52,11.88 11.69,12.12 23.72,31.11 32.26,52.69 7.4,18.73 12.31,39.52 12.31,59.67 0,11.55 -2.31,24.69 -9.18,34.22 -5.75,7.97 -14.38,13.32 -26.95,13.32l-419.97 0c-8.75,0 -17.85,-4.71 -24.65,-11.51 -6.78,-6.79 -11.47,-15.88 -11.47,-24.63 0,-24.73 3.95,-47.98 11.31,-68.7l0.15 -0.5c7.6,-21.23 18.85,-39.8 33.11,-54.56 5.29,-5.48 9.4,-9.12 12.51,-11.88 3.44,-3.05 5.39,-4.78 5.88,-6.23 0.8,-2.38 -0.02,-7.36 -1.91,-18.68l-1.27 -7.66c-5.18,-31.69 -19.36,-71.96 -37.69,-109.4 -17.53,-35.76 -38.79,-68.84 -59.53,-89.23 -5.83,-5.73 -13.39,-13.62 -19.49,-22.13zm303.16 -756.4l1.59 0.04c12.58,0.16 25.14,2.27 36.67,6.3 11.31,3.96 21.75,9.84 30.39,17.58 5.73,5.13 13.54,12.59 20.09,21.05 5.6,7.23 10.36,15.28 12.44,23.5l271.11 0 0 -32.33c0,-8.78 4.69,-17.88 11.48,-24.66 6.79,-6.79 15.89,-11.48 24.67,-11.48l146.07 0c8.75,0 17.85,4.7 24.64,11.49 6.8,6.77 11.5,15.87 11.5,24.65l0 146.07c0,8.75 -4.69,17.83 -11.48,24.63 -6.83,6.82 -15.91,11.51 -24.66,11.51l-146.07 0c-8.78,0 -17.88,-4.69 -24.67,-11.48l-0.39 -0.42c-6.58,-6.75 -11.09,-15.66 -11.09,-24.24l0 -32.34 -113.85 0c24.35,17.15 73.23,52.79 123.9,131.08 9.44,14.6 17.94,29.82 25.5,45.69 7.54,15.82 14.23,32.5 20.12,50.09 3.11,9.32 5.87,18.26 8.32,27.35 2.51,9.27 4.77,18.84 6.84,29.25 1.85,9.28 4.36,22.77 6.13,35.95 0.96,7.14 1.71,14.13 2.02,20.17 6.6,1.68 13.22,5.14 19.43,9.41 10.78,7.44 20.52,17.5 26.43,24.45 9.08,10.65 14.79,22.32 18.23,34.91 3.38,12.4 4.54,25.53 4.54,39.39 0,25.66 -12.79,51.28 -31.91,70.4 -19.12,19.12 -44.77,31.91 -70.42,31.91l-13.69 0c-25.65,0 -51.29,-12.78 -70.41,-31.91 -19.12,-19.12 -31.92,-44.75 -31.92,-70.41l0 -13.7c0,-20.35 8.8,-41.52 21.6,-58.76 12.33,-16.59 28.6,-29.71 44.52,-35.08 -0.79,-28.55 -8.51,-60.49 -20.08,-91.36 -13.93,-37.18 -33.44,-72.8 -53.19,-99.19 -20.44,-27.29 -30.46,-36.57 -53.8,-58.22l-1.08 -1.02 -43.93 -32.94c-41.83,-25.89 -63.11,-32.08 -80.54,-37.17 -6.98,-2.03 -13.37,-3.89 -20.23,-6.69 -2.39,4.92 -5.92,10.01 -9.94,14.83 -7.41,8.9 -16.72,17.18 -23.29,21.65 -10.48,7.14 -20.25,11.76 -30.92,14.59 -10.56,2.8 -21.81,3.82 -35.36,3.82 -19.75,0 -40.36,-7.74 -57.1,-18.76 -15.55,-10.23 -27.95,-23.49 -33.54,-36.25 -4.07,1.42 -8.51,2.65 -12.99,3.91 -4.07,1.13 -8.22,2.29 -12.16,3.64 -27.03,9.26 -56.25,23.97 -83.11,41.84 -25.51,16.97 -48.88,36.77 -66.16,57.38 -23.47,28 -40,49.36 -53.32,72.88 -13.31,23.5 -23.59,49.43 -34.6,86.72 -2.31,7.83 -5.12,21.21 -7.22,34.54 -1.46,9.24 -2.57,18.48 -2.95,25.84 15.91,5.38 32.15,18.49 44.46,35.05 12.8,17.24 21.6,38.41 21.6,58.76l0 13.7c0,25.66 -12.79,51.28 -31.92,70.4 -19.12,19.12 -44.76,31.91 -70.42,31.91l-13.68 0c-25.65,0 -51.3,-12.79 -70.42,-31.91 -19.12,-19.12 -31.91,-44.74 -31.91,-70.4l0 -13.7c0,-20.92 9.83,-43.16 23.4,-60.8 13.08,-17.01 29.96,-29.97 45.19,-33.68 0.56,-13.7 3.05,-30.58 6.44,-47.63 4.79,-24.07 11.44,-48.7 16.91,-65.07 11.1,-33.19 25.79,-64.49 43.78,-93.58 18.13,-29.31 39.62,-56.4 64.17,-80.96 10.1,-10.09 18.51,-18.21 27.3,-25.98 8.81,-7.79 17.93,-15.15 29.4,-23.67l3.71 -2.66 -112.7 0 0 32.34c0,8.75 -4.69,17.83 -11.48,24.63 -6.83,6.82 -15.91,11.51 -24.66,11.51l-146.07 0c-8.78,0 -17.88,-4.69 -24.66,-11.48l-0.39 -0.42c-6.58,-6.75 -11.09,-15.66 -11.09,-24.24l0 -146.07c0,-8.78 4.69,-17.88 11.48,-24.66 6.78,-6.79 15.88,-11.48 24.66,-11.48l146.07 0c8.76,0 17.85,4.7 24.64,11.49 6.8,6.77 11.49,15.87 11.49,24.65l0 32.33 271.14 0c1.69,-6.55 5.13,-13.12 9.37,-19.27 7.45,-10.83 17.5,-20.54 24.43,-26.45 8.75,-7.44 19.23,-13.07 30.57,-16.85 11.76,-3.93 24.44,-5.91 37.03,-5.91zm-438.89 591.43l0.09 0.69c1.12,7.32 4.83,14.26 10.26,19.13l0.37 0.3c4.98,4.34 11.44,6.93 18.63,6.45 13.11,-0.88 20.9,-8.4 23.86,-17.52 1.19,-3.67 1.64,-7.64 1.38,-11.55 -0.25,-3.86 -1.24,-7.71 -2.91,-11.22 -4.11,-8.64 -12.66,-15.02 -25.16,-14.18l-2.34 0.27c-7.97,1.22 -14.17,5.93 -18.3,11.48 -4.12,5.55 -6.17,11.73 -5.88,16.06l0 0.09zm948.11 -510.03l-55.54 0 0 55.55 55.54 0 0 -55.55zm-963.16 0l-55.55 0 0 55.55 55.55 0 0 -55.55zm426.54 26.27l-0.57 2.82c0.51,3.37 1.73,6.86 3.42,10.08 1.72,3.26 3.95,6.26 6.43,8.59 5.9,5.55 12.79,7.68 19.36,7.23 3.48,-0.23 6.93,-1.21 10.09,-2.73 3.18,-1.55 6.11,-3.69 8.53,-6.27 4.82,-5.11 7.75,-12.03 7.24,-19.64 -0.63,-9.39 -4.88,-16.21 -10.72,-20.37 -3.82,-2.72 -8.38,-4.39 -13.08,-4.95 -4.74,-0.56 -9.6,-0.01 -13.96,1.66 -6.61,2.55 -12.25,7.78 -14.88,15.74l-0.04 0.17c-0.39,1.24 -1.23,4.66 -1.82,7.66z"/>
 </g>
</svg>
