<?xml version="1.0" encoding="UTF-8"?>
<!DOCTYPE svg PUBLIC "-//W3C//DTD SVG 1.1//EN" "http://www.w3.org/Graphics/SVG/1.1/DTD/svg11.dtd">
<!-- Creator: CorelDRAW 2018 (64-Bit) -->
<svg xmlns="http://www.w3.org/2000/svg" xml:space="preserve" width="67.7334mm" height="37.7676mm" version="1.1" style="shape-rendering:geometricPrecision; text-rendering:geometricPrecision; image-rendering:optimizeQuality; fill-rule:evenodd; clip-rule:evenodd"
viewBox="0 0 3183.79 1775.26"
 xmlns:xlink="http://www.w3.org/1999/xlink">
 <defs>
  <style type="text/css">
   <![CDATA[
    .str0 {stroke:#30185D;stroke-width:16.58;stroke-miterlimit:10}
    .fil9 {fill:none;fill-rule:nonzero}
    .fil11 {fill:#8F78BD}
    .fil14 {fill:#9079BE}
    .fil6 {fill:#1A0046;fill-rule:nonzero}
    .fil13 {fill:#1F0E03;fill-rule:nonzero}
    .fil3 {fill:#30185D;fill-rule:nonzero}
    .fil8 {fill:#695297;fill-rule:nonzero}
    .fil5 {fill:#7760A5;fill-rule:nonzero}
    .fil7 {fill:#7F68AD;fill-rule:nonzero}
    .fil4 {fill:#9079BE;fill-rule:nonzero}
    .fil0 {fill:#CBB4F8;fill-rule:nonzero}
    .fil1 {fill:#CCB5FA;fill-rule:nonzero}
    .fil10 {fill:#DCCCFE;fill-rule:nonzero}
    .fil2 {fill:#EAE1FE;fill-rule:nonzero}
    .fil12 {fill:#F5F1FF;fill-rule:nonzero}
   ]]>
  </style>
 </defs>
 <g id="Layer_x0020_1">
  <metadata id="CorelCorpID_0Corel-Layer"/>
  <g id="_2594645567264">
   <g>
    <g>
     <path class="fil0" d="M1597.64 793.06c0,25.2 -20.42,45.64 -45.63,45.64 -25.2,0 -45.64,-20.43 -45.64,-45.64l0 -31.66c0,-25.2 20.43,-45.63 45.64,-45.63 25.2,0 45.63,20.43 45.63,45.63l0 31.66z"/>
     <path class="fil1" d="M2062.58 1291.3c-12.58,-61.47 -67.05,-227.7 -199.76,-287.76 -132.71,-60.07 -257.04,-11.18 -303.13,16.75 -46.1,27.93 -99.18,136.91 -122.92,238.87 -23.75,101.98 -104.77,100.59 -167.63,122.93l29.34 106.17 648.17 4.18c0,0 -0.2,2.35 1.2,-14.41 13.05,-0.75 25.03,-4.48 35.68,-6.39 127.25,-22.9 90.68,-123.64 79.07,-180.35zm-662.83 162.74l0 0c25.84,0 141.08,-86.62 164.84,-83.83 11.87,63.56 13.27,97.09 14.67,101.29 1.41,4.19 -172.52,34.92 -179.5,-17.46z"/>
     <path class="fil2" d="M1630 1049.64c-8.38,40.04 -42.84,284.98 15.84,446.08 45.62,3.72 113.61,0 113.61,0 -13.03,-84.75 -39.11,-319.44 14.89,-453.54 -54,0.93 -144.34,7.45 -144.34,7.45z"/>
     <path class="fil2" d="M1659.8 976.98c-46.1,2.81 -56.81,52.63 -35.85,83.35 20.95,30.73 60.52,5.58 67.51,-9.78 49.83,47.03 114.55,4.66 128.52,-65.19 0,-5.57 -79.15,-20.95 -160.18,-8.39z"/>
     <path class="fil0" d="M1791.11 724.5c-2.1,-46.48 -49.83,-135.18 -162.97,-130.17 -80.55,6.2 -90.33,82.5 -90.33,82.5 -2.8,8.56 -17.23,26.69 -17.23,26.69 -4.19,-35.76 18.42,-130.5 120.14,-133.04 114.54,-2.86 169.25,86.78 171.36,151.16 -9.09,15.02 -20.96,2.85 -20.96,2.85z"/>
     <path class="fil3" d="M1566.39 636.56c-38.69,26.5 -61.86,70.62 -42.25,114.48 19.61,43.88 25.17,63.21 6.15,97.53 -26.75,48.28 -38.03,93.36 -17.9,134.35 121.34,-16.76 174.73,-30.4 174.73,-30.4 0,0 -46.91,-321.07 -120.73,-315.95z"/>
     <path class="fil4" d="M1746.51 857.48c0,0 30.01,90.43 32.85,128.64 2.59,35.03 -113.34,58.41 -121.56,21.68 -8.57,-43.7 -21.31,-117.98 -21.31,-117.98l110.02 -32.34z"/>
     <path class="fil5" d="M1756.15 895.24l-9.63 -37.76 -110.02 32.34c0,0 3.92,22.83 8.94,51.43 8.17,1.55 16.61,2.3 25.3,1.9 35.82,-1.58 66.74,-20.35 85.41,-47.91z"/>
     <path class="fil4" d="M1554.18 813.54c2.69,60.22 53.68,106.84 113.87,104.15 60.21,-2.69 106.85,-53.67 104.16,-113.9l-5.15 -115.29c-2.68,-60.21 -53.69,-106.84 -113.89,-104.14 -60.21,2.69 -106.84,53.67 -104.14,113.89l5.15 115.29z"/>
     <path class="fil3" d="M1698.19 694.18c-13.77,-7.4 -31.86,-10.83 -46.26,-3.4 -5.38,2.78 -0.63,10.89 4.75,8.11 11.22,-5.79 26.15,-2.3 36.77,3.4 5.34,2.87 10.08,-5.25 4.74,-8.11z"/>
     <path class="fil3" d="M1566.61 709.4c6.51,-6.16 15.83,-8.41 24.5,-6.63 5.92,1.21 8.43,-7.85 2.5,-9.06 -12.05,-2.47 -24.61,0.48 -33.65,9.05 -4.41,4.17 2.25,10.81 6.65,6.65z"/>
     <path class="fil3" d="M1631.63 793.48c-0.84,0 -1.67,-0.29 -2.35,-0.89l-21.26 -18.72c-0.86,-0.76 -1.31,-1.89 -1.18,-3.04 0.12,-1.14 0.79,-2.16 1.79,-2.72l21.42 -12.05c1.72,-0.96 3.88,-0.35 4.84,1.35 0.96,1.71 0.36,3.87 -1.35,4.84l-17.06 9.6 17.5 15.42c1.47,1.3 1.62,3.54 0.31,5.02 -0.7,0.79 -1.68,1.2 -2.67,1.2z"/>
     <path class="fil3" d="M1639.51 823.62c-5.73,0 -11.36,-1.51 -15.75,-4.51 -1.62,-1.11 -2.04,-3.32 -0.93,-4.94 1.1,-1.61 3.31,-2.03 4.94,-0.93 6.03,4.12 16.17,4.32 23.09,0.47 4.17,-2.33 9.04,-7.11 8.6,-16.71 -0.09,-1.96 1.42,-3.62 3.38,-3.71 1.93,-0.11 3.62,1.42 3.71,3.39 0.47,10.32 -3.88,18.58 -12.24,23.24 -4.44,2.47 -9.66,3.7 -14.81,3.7z"/>
     <path class="fil3" d="M1655.5 754.16c2.59,6.85 10.25,10.31 17.1,7.71 6.83,-2.58 10.31,-10.23 7.71,-17.09 -2.59,-6.86 -10.24,-10.32 -17.09,-7.73 -6.85,2.59 -10.3,10.24 -7.72,17.11z"/>
     <path class="fil3" d="M1576.19 758.91c2.59,6.84 10.25,10.33 17.1,7.73 6.84,-2.58 10.32,-10.25 7.73,-17.11 -2.59,-6.85 -10.24,-10.3 -17.1,-7.7 -6.85,2.58 -10.32,10.23 -7.73,17.08z"/>
     <path class="fil3" d="M1579.62 755.78c-0.55,0 -1.11,-0.15 -1.62,-0.46l-12.94 -7.93c-1.47,-0.9 -1.93,-2.82 -1.03,-4.29 0.9,-1.47 2.83,-1.92 4.29,-1.03l12.94 7.93c1.47,0.9 1.93,2.82 1.03,4.29 -0.59,0.96 -1.62,1.49 -2.67,1.49z"/>
     <path class="fil3" d="M1673.6 751.12c-0.99,0 -1.96,-0.47 -2.57,-1.34 -0.98,-1.41 -0.63,-3.36 0.79,-4.34l13.53 -9.37c1.41,-0.99 3.36,-0.63 4.34,0.78 0.98,1.42 0.63,3.36 -0.79,4.34l-13.53 9.38c-0.54,0.37 -1.16,0.55 -1.77,0.55z"/>
     <path class="fil3" d="M1875.99 814.24c-18.1,-39 4.24,-63.21 -5.39,-100.36 -8.45,-32.5 -47.13,-31.49 -67.08,-77.52 -30.57,-70.59 -187.85,-134.13 -246.49,9.1 65.19,-44.2 132.01,-21.22 157.38,11.46 51.15,65.9 -1.33,93.82 18.41,133.01 14.38,28.55 23.81,47.79 5.23,91 -18.59,43.21 7.44,84.31 7.44,84.31 60.87,-6.74 129.68,-12.72 192.19,-23.31 0,-105.47 -43.6,-88.69 -61.69,-127.68z"/>
     <path class="fil4" d="M1478.21 1399.79c-47.5,25.14 -57.74,30.73 -46.57,35.39 -27.93,1.86 -11.64,16.75 7.92,10.23 -13.03,5.59 5.13,11.65 31.2,1.87 6.52,10.25 40.05,5.6 61.47,-6.51 19.95,-11.28 65.78,-20.95 109.6,-9.42 3.21,0.85 0.98,-2.17 4.16,-1.08 0.34,-1.75 6.04,0.39 6.21,-1.5 2.74,-29.31 -12.87,-76.26 -12.87,-76.26 -79.72,3.27 -89.79,9.52 -161.11,47.28z"/>
     <path class="fil1" d="M1633.02 1354.86c28.64,-6.28 108.74,-12.81 156.23,-10.01 2.79,37.25 -17.7,112.68 -17.7,112.68l-126.66 -27.95c0,0 6.3,-39.8 -11.87,-74.72z"/>
     <path class="fil3" d="M1630.63 1355.51c56.55,-8.17 113.74,-8.01 170.74,-9.62 27.46,-0.78 53.79,-3.97 80.99,-7.08 25.86,-2.96 56.49,2.66 81.35,10.18 2.93,0.88 4.17,-3.69 1.26,-4.57 -22.95,-6.94 -49.83,-11.51 -73.86,-10.99 -11.91,0.26 -23.85,2.7 -35.59,4.45 -16.35,2.44 -33,2.59 -49.49,3.13 -59,1.91 -118.09,1.47 -176.65,9.93 -3.01,0.44 -1.73,5 1.26,4.57z"/>
     <path class="fil3" d="M1882.88 1210.43c5.39,39.33 8.2,78.88 8.31,118.58 0,3.05 4.74,3.05 4.73,0 -0.11,-40.14 -3.03,-80.08 -8.47,-119.84 -0.41,-3.02 -4.98,-1.73 -4.57,1.26z"/>
     <path class="fil3" d="M1641.17 1431.95c17.12,-0.2 32.99,7.39 49.23,11.79 19.3,5.24 38.2,11.8 57.49,17.09 38.99,10.69 79.53,17.48 119.9,19.81 64.22,3.71 143.35,3.23 191.84,-44.85 2.17,-2.15 -1.18,-5.5 -3.35,-3.35 -50.69,50.26 -135.41,47.65 -201.92,42.57 -39.78,-3.04 -79.67,-11.15 -117.93,-22.34 -17.19,-5.03 -34.34,-10.28 -51.5,-15.41 -14.44,-4.32 -28.44,-10.23 -43.76,-10.04 -3.05,0.04 -3.06,4.78 0,4.74z"/>
     <path class="fil3" d="M1546.7 1161.69c-4.24,12.71 -2.97,26.37 -2.79,39.57 0.26,18.16 1.59,36.3 2.54,54.43 0.94,17.91 1.48,35.83 2.91,53.71 1.33,16.5 7.57,32.15 8.43,48.49 0.16,3.04 4.89,3.06 4.74,0 -0.79,-14.95 -6.52,-29.09 -8.03,-44.03 -1.65,-16.35 -2.17,-32.82 -2.9,-49.24 -0.73,-16.56 -1.87,-33.08 -2.56,-49.64 -0.69,-16.57 -3.09,-36.09 2.21,-52.02 0.97,-2.9 -3.61,-4.14 -4.56,-1.26z"/>
     <path class="fil3" d="M1618.4 999.64c-7.43,26.22 -12.66,59.68 16.73,74.42 10.6,5.31 22.68,2.68 32.9,-1.95 7.19,-3.26 13.45,-8.76 19.39,-13.85 6.01,-5.15 8.64,2.66 13.95,6.46 43.2,30.89 100.06,-11.88 114.37,-54.5 0.97,-2.9 -3.61,-4.14 -4.57,-1.26 -15.26,45.48 -80.5,87.24 -118.04,40.86 -0.84,-1.04 -2.47,-0.79 -3.35,0 -15.57,14 -35.82,30.58 -57.06,17.46 -23.15,-14.29 -15.75,-45.25 -9.75,-66.38 0.83,-2.95 -3.74,-4.19 -4.57,-1.26z"/>
     <path class="fil3" d="M1468.59 1451.44c14.92,-2.65 26.89,-11.99 39.45,-19.87 17.31,-10.86 36.76,-17.1 55.54,-24.84 2.78,-1.15 1.57,-5.73 -1.26,-4.57 -15.5,6.4 -31.38,11.8 -46.36,19.4 -16.28,8.26 -30.18,22.03 -48.63,25.31 -3,0.54 -1.73,5.1 1.26,4.57z"/>
     <path class="fil3" d="M1434.7 1451.2c37.72,-15.93 72.46,-38.31 111.18,-51.92 2.86,-1.01 1.63,-5.58 -1.26,-4.57 -39.11,13.75 -74.22,36.31 -112.31,52.4 -2.8,1.18 -0.39,5.26 2.39,4.09z"/>
     <path class="fil3" d="M1426.32 1440.02c14.89,-9.04 31.89,-13.25 47.2,-21.38 15.17,-8.05 30.24,-16.31 45.93,-23.32 2.78,-1.25 0.37,-5.33 -2.39,-4.09 -15.69,7.01 -30.77,15.24 -45.92,23.32 -15.31,8.16 -32.29,12.33 -47.21,21.38 -2.61,1.58 -0.23,5.68 2.39,4.09z"/>
     <path class="fil3" d="M1671.95 1090.07c1.59,8.41 13.49,8.12 17.34,1.62 2.14,-3.61 -0.18,-7.86 -3.48,-9.73 -4.04,-2.3 -10.14,-1.91 -12.9,2.1 -1.74,2.52 2.37,4.88 4.09,2.39 2.08,-3.02 10.79,0.14 7.73,3.52 -2.33,2.57 -7.46,2.77 -8.2,-1.15 -0.57,-3 -5.13,-1.73 -4.57,1.26z"/>
     <path class="fil3" d="M1665.67 1125.12c-1.21,8.38 8.5,10.74 14.14,6.08 2.88,-2.38 4.38,-6.96 1.96,-10.2 -2.52,-3.37 -7.41,-2.82 -10.95,-1.71 -2.9,0.91 -1.66,5.49 1.26,4.57 1.77,-0.56 4.08,-1.22 5.79,-0.21 1.47,0.86 -0.5,3.51 -1.29,4.08 -1.73,1.26 -6.85,2.2 -6.34,-1.36 0.43,-2.99 -4.14,-4.27 -4.57,-1.26z"/>
     <path class="fil3" d="M1662.79 1170.46c0.41,9.5 14.43,5.71 15.84,-1.47 1.71,-8.76 -13.56,-13.56 -15.06,-4.05 -0.47,2.98 4.1,4.27 4.57,1.26 0.57,-3.66 5.8,-1.15 5.87,1.69 0.05,2.24 -6.36,5.28 -6.48,2.57 -0.13,-3.05 -4.87,-3.06 -4.73,0z"/>
     <path class="fil3" d="M1570.59 1429.58c-0.71,6.98 0.28,15.06 2.88,21.59 1.11,2.8 5.7,1.58 4.57,-1.26 -2.48,-6.23 -3.39,-13.67 -2.72,-20.33 0.31,-3.04 -4.43,-3 -4.74,0z"/>
     <path class="fil3" d="M1629.74 1356.2c8.83,6.21 9.54,18.53 12.03,28.12 3.31,12.69 5.77,28.43 0.16,40.82 -1.26,2.75 2.83,5.17 4.09,2.38 6.34,-13.98 3.69,-30 0.33,-44.47 -2.61,-11.22 -4.16,-23.87 -14.22,-30.94 -2.51,-1.76 -4.87,2.35 -2.39,4.09z"/>
     <path class="fil6" d="M1515.5 820.38c-7.45,55.24 74.15,55.42 109.39,53.74 3.04,-0.15 3.05,-4.88 0,-4.74 -31.1,1.48 -111.66,2.98 -104.83,-47.74 0.4,-2.99 -4.16,-4.28 -4.56,-1.26z"/>
     <path class="fil0" d="M1652.36 871.06c0,7.84 -7.82,14.2 -17.47,14.2 -9.64,0 -17.45,-6.36 -17.45,-14.2 0,-7.85 7.81,-14.21 17.45,-14.21 9.65,0 17.47,6.37 17.47,14.21z"/>
     <path class="fil0" d="M1640.72 570.49c-58.03,1.46 -90.27,32.89 -106.52,66.28 5.53,0.61 11.52,2.24 16.49,4.59 12.03,-20.83 34.84,-43.74 77.46,-47.02 113.15,-5.01 160.87,83.69 162.97,130.17 0,0 11.87,12.16 20.96,-2.85 -2.11,-64.38 -56.81,-154.02 -171.36,-151.16z"/>
     <path class="fil0" d="M1848.86 793.06c0,25.2 -20.44,45.64 -45.63,45.64 -25.21,0 -45.64,-20.43 -45.64,-45.64l0 -31.66c0,-25.2 20.42,-45.63 45.64,-45.63 25.19,0 45.63,20.43 45.63,45.63l0 31.66z"/>
     <path class="fil3" d="M1838.11 788.19c-1.66,30.81 -43,37.86 -54.34,8.94 -3.38,-8.63 -1.46,-20.86 -1.46,-29.94 0,-31.52 43.34,-36.96 54.34,-8.94 3.38,8.63 1.46,20.86 1.46,29.94 0,3.06 4.73,3.06 4.73,0 0,-19 1.86,-37.34 -16.16,-49.18 -21.83,-14.35 -47.85,4.9 -49.11,28.17 -1.01,18.69 -1.16,37.81 16.16,49.19 21.84,14.34 47.86,-4.92 49.11,-28.18 0.17,-3.05 -4.57,-3.04 -4.73,0z"/>
    </g>
    <g>
     <path class="fil7" d="M1304.05 1451.01c26.08,0 347.37,0 364.13,0 16.77,0 20.49,33.53 -7.45,33.53 -27.94,0 -835.35,0 -835.35,0 -25.15,-50.29 -137.83,-357.62 -149.01,-386.48 -11.17,-28.87 -0.93,-62.39 44.7,-62.39 45.63,0 286.83,0 320.36,0 33.52,0 70.77,5.57 94.05,56.8 23.29,51.23 168.56,358.55 168.56,358.55z"/>
     <path class="fil8" d="M1669.34 1483.21c1.1,-0.39 2.09,-0.85 3.01,-1.34 0.09,-0.04 0.18,-0.08 0.25,-0.13 14.3,-8.01 9.39,-30.73 -4.42,-30.73 -2.73,0 -13.53,0 -29.81,0 -83.68,0 -312.48,0 -334.33,0 0,0 -0.12,-0.25 -0.29,-0.62 -0.16,-0.34 -0.39,-0.82 -0.71,-1.49 -1.29,-2.73 -3.82,-8.08 -7.38,-15.64 -31.24,-66.12 -140.28,-297.03 -160.18,-340.81 -23.28,-51.23 -60.53,-56.8 -94.05,-56.8 -5.29,0 -15.77,0 -29.81,0 33.53,0 70.78,5.57 94.06,56.8 23.28,51.23 168.56,358.55 168.56,358.55l12.58 32.62c0,0 15.7,0.37 40.76,0.91 130.43,0 249.39,0 303.35,0 16.51,0 27.03,0 29.8,0 1.68,0 3.22,-0.14 4.67,-0.36 0.92,-0.15 1.75,-0.4 2.59,-0.63 0.44,-0.12 0.92,-0.19 1.34,-0.33z"/>
     <path class="fil9 str0" d="M1001.39 1264.77c9.19,22.73 -1.71,41.16 -24.33,41.16 -22.63,0 -48.43,-18.43 -57.62,-41.16 -9.19,-22.74 1.7,-41.18 24.33,-41.18 22.63,0 48.43,18.44 57.62,41.18z"/>
    </g>
    <g>
     <polygon class="fil10" points="2095.38,1510.54 781.74,1510.54 781.74,1775.26 2095.38,1775.26 "/>
     <path class="fil4" d="M2149.89 1505.35c0,12.42 -10.08,22.51 -22.51,22.51l-1377.67 0c-12.42,0 -22.5,-10.08 -22.5,-22.51 0,-12.43 10.08,-22.51 22.5,-22.51l1377.67 0c12.43,0 22.51,10.08 22.51,22.51z"/>
    </g>
   </g>
   <g>
    <path class="fil1" d="M623.41 707.6c31.23,29.58 56.73,29.58 56.67,-0 -0.07,-29.58 -0.16,-78 -0.22,-107.58 -0.07,-29.59 -25.62,-53.79 -56.79,-53.79 -31.17,0 -82.17,0 -113.34,0 -31.17,0 -31.12,24.21 0.11,53.79 31.23,29.59 82.34,78 113.57,107.58z"/>
    <path class="fil1" d="M1368.21 421.28c0,100.4 -81.39,181.8 -181.79,181.8l-667.36 0c-100.4,0 -181.79,-81.39 -181.79,-181.8l0 -239.5c0,-100.39 81.39,-181.78 181.79,-181.78l667.36 0c100.4,0 181.79,81.39 181.79,181.78l0 239.5z"/>
    <path class="fil11" d="M866.65 112.32l0 73.75 -14.23 0 0 -31.47 -33.45 0 0 31.47 -14.33 0 0 -73.75 14.33 0 0 29.81 33.45 0 0 -29.81 14.23 0zm66.59 61.18l0 12.57 -51.21 0 0 -73.75 50.28 0 0 12.57 -35.94 0 0 17.76 31.06 0 0 11.63 -31.06 0 0 19.22 36.88 0zm11.53 12.57l0 -73.75 14.34 0 0 61.18 37.6 0 0 12.57 -51.94 0zm61.19 0l0 -73.75 31.27 0c3.39,0 6.52,0.71 9.4,2.13 2.87,1.42 5.35,3.29 7.43,5.61 2.08,2.32 3.7,4.95 4.88,7.9 1.18,2.94 1.76,5.9 1.76,8.88 0,3.12 -0.55,6.15 -1.66,9.09 -1.11,2.94 -2.67,5.56 -4.68,7.84 -2.01,2.29 -4.43,4.12 -7.27,5.51 -2.84,1.39 -5.96,2.08 -9.35,2.08l-17.45 0 0 24.72 -14.34 0zm14.34 -37.29l16.62 0c2.63,0 4.83,-1.08 6.6,-3.22 1.77,-2.15 2.65,-5.06 2.65,-8.73 0,-1.87 -0.28,-3.55 -0.83,-5.04 -0.55,-1.49 -1.28,-2.75 -2.18,-3.79 -0.9,-1.04 -1.96,-1.82 -3.17,-2.34 -1.21,-0.52 -2.44,-0.78 -3.69,-0.78l-16 0 0 23.89zm50.59 9.56l0 -46.75 13.92 0 0 46.75 -13.92 0zm0 27.73l0 -15.68 13.92 0 0 15.68 -13.92 0z"/>
    <polygon class="fil12" points="1270.76,266.98 805.31,266.98 805.31,236.71 1270.76,236.71 "/>
    <polygon class="fil12" points="1207.25,340.5 805.31,340.5 805.31,310.24 1207.25,310.24 "/>
    <polygon class="fil12" points="1071.92,414.03 805.31,414.03 805.31,383.77 1071.92,383.77 "/>
    <polygon class="fil12" points="1236.5,487.56 805.31,487.56 805.31,457.29 1236.5,457.29 "/>
    <g>
     <path class="fil3" d="M712.92 476.34c-13.87,-34.44 -61.86,-59.05 -86.37,-58.72l-82.8 0c-27.22,2.56 -72.5,24.28 -86.38,58.72 32.43,32.1 77.68,52.05 127.78,52.05 50.1,0 95.34,-19.95 127.77,-52.05z"/>
     <path class="fil4" d="M551.33 346.92c0,0 -7.93,65.15 -13.41,101.98 -4,26.91 92.56,34.47 95.49,5.47 2.56,-34.4 5.51,-92.71 5.51,-92.71l-87.6 -14.74z"/>
     <path class="fil5" d="M547.4 376.85l3.92 -29.93 87.6 14.74c0,0 -0.92,17.91 -2.14,40.38 -6.14,1.95 -12.56,3.3 -19.28,3.8 -27.7,2.07 -53.21,-9.51 -70.11,-28.99z"/>
     <path class="fil4" d="M695.2 295.41c3.48,46.56 -31.44,87.12 -77.99,90.61 -46.55,3.47 -87.12,-31.45 -90.6,-78.01l-6.67 -89.15c-3.49,-46.54 31.44,-87.12 77.99,-90.58 46.56,-3.49 87.12,31.43 90.6,77.98l6.66 89.16z"/>
     <path class="fil3" d="M580.11 228.18c11.85,-2.51 21.37,-7.79 28.48,-17.72 3.54,-4.94 -4.62,-9.62 -8.11,-4.74 -5.65,7.88 -13.58,11.43 -22.86,13.4 -5.93,1.26 -3.41,10.31 2.5,9.06z"/>
     <path class="fil3" d="M675.76 209.69c-6.64,-1.25 -10.71,-4.39 -13.97,-10.28 -2.93,-5.31 -11.05,-0.57 -8.12,4.74 4.32,7.83 10.72,12.95 19.58,14.6 5.92,1.11 8.45,-7.94 2.5,-9.06z"/>
     <path class="fil3" d="M633.46 287.93c-0.84,0 -1.69,-0.3 -2.37,-0.91 -1.46,-1.31 -1.58,-3.55 -0.28,-5.02l11.29 -12.63 -12.96 -5.38c-1.81,-0.75 -2.67,-2.83 -1.92,-4.64 0.75,-1.81 2.83,-2.67 4.64,-1.92l17.59 7.29c1.06,0.44 1.85,1.37 2.1,2.5 0.25,1.12 -0.05,2.3 -0.81,3.15l-14.63 16.37c-0.7,0.78 -1.68,1.18 -2.65,1.18z"/>
     <path class="fil3" d="M612.11 323.86c-1.11,0 -2.21,-0.53 -2.9,-1.5 -1.13,-1.6 -0.75,-3.82 0.85,-4.95 13.99,-9.89 26.54,-13.87 37.35,-11.82 1.92,0.37 3.19,2.22 2.82,4.16 -0.37,1.92 -2.22,3.18 -4.16,2.82 -8.81,-1.67 -19.57,1.9 -31.92,10.64 -0.63,0.44 -1.34,0.65 -2.05,0.65z"/>
     <path class="fil3" d="M611.8 259.07c-1.36,5.5 -6.93,8.87 -12.44,7.52 -5.49,-1.36 -8.87,-6.93 -7.5,-12.44 1.35,-5.51 6.92,-8.88 12.43,-7.51 5.5,1.35 8.87,6.93 7.52,12.44z"/>
     <path class="fil3" d="M673.24 255.41c-1.36,5.49 -6.92,8.88 -12.44,7.52 -5.5,-1.34 -8.87,-6.94 -7.52,-12.44 1.35,-5.5 6.93,-8.87 12.43,-7.49 5.51,1.35 8.88,6.91 7.53,12.42z"/>
     <path class="fil4" d="M542.81 285.62c4,16.47 -6.1,33.07 -22.58,37.06 -16.48,4.01 -33.08,-6.09 -37.08,-22.57l-2.29 -9.42c-4,-16.48 6.1,-33.07 22.58,-37.08 16.47,-4 33.07,6.11 37.08,22.58l2.28 9.42z"/>
     <path class="fil3" d="M496.51 256.69c-7.22,-20.55 -42.38,-104.15 9.92,-106.68 3.25,-32.82 48.88,-50.13 105.86,-61.31 56.99,-11.17 92.52,15.52 88.19,42.2 -4.33,26.69 -39.32,36.43 -67.09,28.49 -7.93,28.85 -46.17,19.13 -54.46,13.35 -6.41,27.95 -38.15,34.72 -34.54,54.2 3.61,19.48 5.23,39.31 5.95,43.28 0.72,3.97 -15.87,11.72 -19.48,3.78 -3.61,-7.93 -17.86,-22.18 -34.36,-17.31z"/>
    </g>
    <path class="fil3" d="M654.05 713.18c34.59,6.86 14.76,-110.48 14.54,-128.17 -0.79,0.79 -1.58,1.58 -2.37,2.37 74.43,0.66 148.88,0.86 223.31,0.2 53.21,-0.47 106.37,-1.83 159.59,-1.82 32.72,0 65.28,-1.21 97.96,-2.47 35.05,-1.35 69.99,-1.24 104.12,-10.31 65.32,-17.35 89.1,-86.42 95.85,-147.03 0.34,-3.04 -4.4,-3 -4.74,0 -5.01,44.98 -18.64,94.28 -54.83,124.25 -27.26,22.57 -67.43,25.43 -101.26,27.08 -33.68,1.64 -67.51,3.06 -101.24,3.55 -106.67,1.53 -213.43,2.57 -320.12,2.33 -32.88,-0.07 -65.77,-0.22 -98.65,-0.51 -1.28,-0.01 -2.39,1.09 -2.37,2.37 0.19,14.92 15.62,128.39 -8.55,123.6 -2.98,-0.59 -4.25,3.97 -1.26,4.57z"/>
    <path class="fil13" d="M1344.84 223.23c0.04,58.83 2.57,117.99 -1.45,176.74 -0.21,3.05 4.53,3.03 4.74,0 4.01,-58.75 1.49,-117.91 1.45,-176.74 -0,-3.06 -4.74,-3.06 -4.74,0z"/>
   </g>
   <g>
    <path class="fil1" d="M3183.79 991.78c0,104.09 -84.39,188.47 -188.48,188.47l-691.89 0c-104.09,0 -188.48,-84.38 -188.48,-188.47l0 -248.29c0,-104.09 84.39,-188.47 188.48,-188.47l691.89 0c104.09,0 188.48,84.38 188.48,188.47l0 248.29z"/>
    <path class="fil1" d="M2328.32 1288.61c-32.38,30.67 -58.82,30.67 -58.76,-0 0.07,-30.66 0.17,-80.86 0.24,-111.52 0.07,-30.68 26.55,-55.77 58.87,-55.77 32.31,0 85.19,0 117.5,0 32.31,0 32.26,25.09 -0.12,55.77 -32.38,30.68 -85.36,80.86 -117.73,111.53z"/>
    <path class="fil14" d="M2320.71 697.72l-24.34 0 0 63.43 -14.86 0 0 -63.43 -24.45 0 0 -13.03 63.65 0 0 13.03zm73.88 -13.03l0 76.46 -14.75 0 0 -32.63 -34.68 0 0 32.63 -14.86 0 0 -76.46 14.86 0 0 30.91 34.68 0 0 -30.91 14.75 0zm8.18 76.46l30.16 -76.46 12.06 0 30.05 76.46 -15.72 0 -7 -19.06 -26.82 0 -7 19.06 -15.72 0zm36.19 -60.42l-10.99 30.91 21.65 0 -10.66 -30.91zm59.12 11.41l0 49 -14.86 0 0 -76.46 11.52 0 39.85 50.19 0 -50.08 14.86 0 0 76.35 -12.06 0 -39.31 -49zm67.31 49l0 -76.35 14.86 0 0 37.26 33.06 -37.37 15.4 0 -29.29 33.92 31.12 42.54 -15.72 0 -24.34 -34.14 -10.23 11.09 0 23.05 -14.86 0zm116.42 -56.43c-0.5,-0.5 -1.42,-1.18 -2.75,-2.04 -1.33,-0.86 -2.94,-1.71 -4.85,-2.53 -1.9,-0.83 -3.97,-1.53 -6.19,-2.1 -2.23,-0.57 -4.49,-0.86 -6.79,-0.86 -4.09,0 -7.14,0.75 -9.15,2.26 -2.01,1.5 -3.02,3.62 -3.02,6.36 0,1.57 0.38,2.89 1.13,3.93 0.75,1.04 1.85,1.96 3.28,2.75 1.44,0.79 3.25,1.51 5.44,2.15 2.19,0.65 4.72,1.33 7.59,2.05 3.73,1 7.13,2.08 10.18,3.23 3.05,1.15 5.64,2.59 7.76,4.31 2.12,1.73 3.75,3.79 4.9,6.2 1.15,2.41 1.73,5.37 1.73,8.88 0,4.09 -0.78,7.59 -2.32,10.5 -1.54,2.91 -3.61,5.26 -6.19,7.06 -2.59,1.8 -5.6,3.1 -9.05,3.93 -3.45,0.83 -7.04,1.24 -10.77,1.24 -5.74,0 -11.42,-0.86 -17.02,-2.59 -5.6,-1.73 -10.63,-4.16 -15.08,-7.32l6.57 -12.82c0.64,0.64 1.81,1.49 3.5,2.53 1.69,1.04 3.68,2.08 5.98,3.13 2.3,1.04 4.85,1.92 7.65,2.64 2.8,0.72 5.67,1.08 8.62,1.08 8.18,0 12.28,-2.62 12.28,-7.86 0,-1.73 -0.47,-3.16 -1.4,-4.31 -0.94,-1.15 -2.26,-2.16 -3.99,-3.02 -1.73,-0.86 -3.81,-1.65 -6.25,-2.37 -2.44,-0.72 -5.17,-1.47 -8.18,-2.26 -3.66,-1.01 -6.84,-2.1 -9.53,-3.29 -2.69,-1.18 -4.94,-2.57 -6.73,-4.15 -1.8,-1.58 -3.14,-3.45 -4.04,-5.6 -0.9,-2.15 -1.35,-4.7 -1.35,-7.64 0,-3.88 0.72,-7.32 2.16,-10.34 1.43,-3.02 3.43,-5.53 5.98,-7.54 2.55,-2.01 5.51,-3.53 8.88,-4.57 3.37,-1.04 7,-1.57 10.88,-1.57 5.38,0 10.34,0.85 14.86,2.53 4.52,1.68 8.47,3.68 11.85,5.97l-6.57 12.06zm21 27.68l0 -48.47 14.43 0 0 48.47 -14.43 0zm0 28.75l0 -16.26 14.43 0 0 16.26 -14.43 0z"/>
    <polygon class="fil12" points="2240.41,844.94 2722.96,844.94 2722.96,813.57 2240.41,813.57 "/>
    <polygon class="fil12" points="2240.41,921.18 2657.12,921.18 2657.12,889.79 2240.41,889.79 "/>
    <polygon class="fil12" points="2240.41,997.4 2516.8,997.4 2516.8,966.02 2240.41,966.02 "/>
    <g>
     <path class="fil3" d="M2833.7 1060.52c14.38,-35.71 64.12,-61.23 89.54,-60.89l85.84 0c28.22,2.66 75.18,25.19 89.55,60.89 -33.62,33.27 -80.52,53.95 -132.46,53.95 -51.94,0 -98.86,-20.67 -132.47,-53.95z"/>
     <g>
      <path class="fil4" d="M3001.24 926.33c0,0 8.22,67.54 13.89,105.73 4.15,27.89 -95.96,35.73 -99,5.66 -2.67,-35.66 -5.71,-96.11 -5.71,-96.11l90.82 -15.28z"/>
      <path class="fil5" d="M3005.3 957.37l-4.07 -31.04 -90.82 15.28c0,0 0.94,18.58 2.21,41.87 6.37,2.02 13.03,3.42 19.99,3.94 28.72,2.15 55.16,-9.87 72.68,-30.05z"/>
      <path class="fil4" d="M2852.07 872.93c-3.6,48.27 32.6,90.31 80.86,93.93 48.26,3.6 90.32,-32.6 93.92,-80.87l6.92 -92.43c3.61,-48.27 -32.6,-90.32 -80.85,-93.92 -48.28,-3.61 -90.33,32.58 -93.93,80.85l-6.92 92.43z"/>
      <path class="fil3" d="M2972.06 794.66c-4.76,-9.16 -15.32,-15.5 -25.75,-14.29 -5.95,0.69 -6.01,10.1 0,9.4 7.4,-0.86 14.24,3.09 17.65,9.64 2.79,5.38 10.91,0.63 8.11,-4.74z"/>
      <path class="fil3" d="M2876.86 792.08c4.11,-4.31 11.65,-7.27 17.53,-5.85 5.89,1.42 8.39,-7.64 2.5,-9.06 -9.1,-2.2 -20.22,1.5 -26.67,8.26 -4.18,4.38 2.45,11.04 6.64,6.65z"/>
      <path class="fil3" d="M2916.09 865.05c-0.98,0 -1.95,-0.4 -2.65,-1.18l-15.17 -16.97c-0.77,-0.86 -1.07,-2.04 -0.82,-3.16 0.25,-1.12 1.04,-2.05 2.11,-2.49l18.23 -7.56c1.81,-0.75 3.89,0.11 4.64,1.92 0.75,1.81 -0.11,3.89 -1.92,4.64l-13.61 5.65 11.84 13.24c1.3,1.46 1.18,3.71 -0.28,5.02 -0.68,0.61 -1.53,0.9 -2.37,0.9z"/>
      <path class="fil3" d="M2914.71 913.7c-0,0 0,0 -0,0 -9.73,0 -16.32,-10.31 -20.14,-31.53 -0.2,-1.12 0.15,-2.28 0.94,-3.1 0.8,-0.83 1.96,-1.19 3.07,-1.05 5.99,0.88 13.59,1.79 24.57,1.79 5.66,0 11.81,-0.23 18.8,-0.71 1.29,-0.11 2.57,0.55 3.26,1.68 0.69,1.12 0.71,2.53 0.03,3.67 -11.61,19.68 -21.59,29.24 -30.53,29.24zm-12.19 -27.97l0 0c2.97,13.34 7.32,20.87 12.18,20.87 3.13,0 9.8,-2.75 20.88,-20 -12.8,0.63 -22.57,0.39 -33.06,-0.87z"/>
      <path class="fil3" d="M2938.53 835.25c1.41,5.72 7.19,9.2 12.9,7.79 5.7,-1.41 9.2,-7.19 7.78,-12.9 -1.41,-5.71 -7.17,-9.2 -12.89,-7.79 -5.71,1.41 -9.19,7.19 -7.79,12.9z"/>
      <path class="fil3" d="M2874.84 831.47c1.41,5.69 7.18,9.19 12.9,7.78 5.7,-1.41 9.21,-7.19 7.8,-12.9 -1.41,-5.71 -7.19,-9.18 -12.89,-7.78 -5.71,1.41 -9.22,7.17 -7.8,12.89z"/>
     </g>
     <path class="fil4" d="M3010.06 862.79c-4.15,17.08 6.33,34.29 23.4,38.44 17.08,4.15 34.3,-6.32 38.44,-23.41l2.37 -9.76c4.16,-17.08 -6.32,-34.29 -23.4,-38.44 -17.08,-4.15 -34.29,6.34 -38.44,23.42l-2.37 9.76z"/>
     <path class="fil3" d="M3058.07 832.8c7.47,-21.32 43.93,-108 -10.28,-110.61 -3.37,-34.03 -50.67,-51.98 -109.75,-63.57 -59.08,-11.59 -95.92,16.08 -91.44,43.75 4.49,27.68 40.76,37.76 69.55,29.54 8.23,29.91 47.86,19.81 56.47,13.84 6.64,28.98 39.55,35.99 35.81,56.18 -3.75,20.2 -5.43,40.76 -6.18,44.88 -0.74,4.12 16.45,12.15 20.21,3.92 3.73,-8.23 18.5,-22.99 35.62,-17.94z"/>
    </g>
    <path class="fil3" d="M2993.1 1166.28c69.56,-2.75 144.13,-47.02 158.94,-118.92 0.62,-2.98 -3.95,-4.25 -4.57,-1.26 -14.38,69.82 -86.8,112.76 -154.37,115.44 -3.05,0.12 -3.06,4.86 0,4.73z"/>
    <path class="fil3" d="M2935.55 1166.66c12.69,0.45 25.39,0.71 38.08,0.98 3.06,0.07 3.05,-4.66 0,-4.73 -12.7,-0.28 -25.39,-0.53 -38.08,-0.99 -3.06,-0.11 -3.05,4.63 0,4.74z"/>
    <path class="fil3" d="M2327.26 1271.27c23.85,-21.45 47.79,-42.81 70.21,-65.78 10.37,-10.63 19.62,-24.5 32.15,-32.92 7.41,-4.98 16.61,-5.78 25.28,-6.28 17.07,-0.98 34.24,-0.54 51.32,-0.77 30.99,-0.43 61.92,-2.08 92.92,-2.02 33.2,0.07 66.38,1.56 99.54,3.07 64.59,2.95 129.34,6 193.81,-0.64 3.01,-0.31 3.04,-5.05 0,-4.73 -65.96,6.79 -132.21,3.45 -198.28,0.44 -34.73,-1.58 -69.48,-2.93 -104.26,-2.87 -31.03,0.06 -62.03,1.8 -93.06,2.13 -21.15,0.23 -50.61,-4.46 -69.67,7.59 -11.8,7.46 -20.66,20.57 -30.05,30.47 -23.08,24.35 -48.35,46.55 -73.28,68.97 -2.28,2.04 1.09,5.38 3.35,3.35z"/>
   </g>
   <g>
    <path class="fil1" d="M2793.42 313.06c0,54.48 -44.18,98.65 -98.65,98.65l-918.56 0c-54.48,0 -98.65,-44.17 -98.65,-98.65l0 -91.83c0,-54.48 44.17,-98.66 98.65,-98.66l918.56 0c54.48,0 98.65,44.18 98.65,98.66l0 91.83z"/>
    <g>
     <path class="fil4" d="M1831.03 191.61c3.45,-7 9.12,-7 12.57,0l11.05 22.38c3.45,7.01 12.61,13.66 20.34,14.79l24.7 3.59c7.73,1.12 9.48,6.51 3.89,11.96l-17.87 17.41c-5.59,5.45 -9.09,16.22 -7.77,23.92l4.23 24.6c1.32,7.7 -3.26,11.03 -10.18,7.39l-22.1 -11.62c-6.91,-3.63 -18.24,-3.63 -25.15,0l-22.09 11.61c-6.91,3.64 -11.49,0.31 -10.17,-7.39l4.22 -24.6c1.33,-7.7 -2.18,-18.47 -7.77,-23.92l-17.87 -17.41c-5.59,-5.45 -3.84,-10.83 3.89,-11.96l24.69 -3.6c7.73,-1.12 16.89,-7.78 20.34,-14.79l11.04 -22.37z"/>
     <path class="fil4" d="M2028.38 191.61c3.46,-7 9.12,-7 12.58,0l11.03 22.38c3.46,7.01 12.61,13.66 20.35,14.79l24.69 3.59c7.73,1.12 9.48,6.51 3.89,11.96l-17.86 17.41c-5.59,5.45 -9.09,16.22 -7.77,23.92l4.22 24.6c1.32,7.7 -3.26,11.03 -10.17,7.39l-22.09 -11.61c-6.91,-3.64 -18.24,-3.64 -25.15,-0l-22.1 11.62c-6.91,3.63 -11.49,0.31 -10.17,-7.39l4.22 -24.6c1.32,-7.7 -2.18,-18.47 -7.77,-23.92l-17.86 -17.41c-5.59,-5.45 -3.84,-10.83 3.89,-11.96l24.7 -3.6c7.73,-1.12 16.89,-7.78 20.35,-14.79l11.04 -22.37z"/>
     <path class="fil4" d="M2225.73 191.61c3.46,-7 9.12,-7 12.58,0l11.04 22.38c3.45,7.01 12.61,13.66 20.34,14.79l24.7 3.59c7.74,1.12 9.48,6.51 3.89,11.96l-17.86 17.41c-5.6,5.45 -9.1,16.22 -7.78,23.92l4.23 24.6c1.32,7.7 -3.26,11.03 -10.18,7.39l-22.09 -11.61c-6.91,-3.64 -18.24,-3.64 -25.15,0l-22.08 11.61c-6.92,3.64 -11.5,0.31 -10.18,-7.39l4.22 -24.6c1.32,-7.7 -2.18,-18.47 -7.77,-23.92l-17.85 -17.41c-5.6,-5.45 -3.85,-10.83 3.88,-11.96l24.68 -3.59c7.73,-1.13 16.89,-7.78 20.35,-14.79l11.04 -22.37z"/>
     <path class="fil4" d="M2423.09 191.61c3.46,-7 9.12,-7 12.57,0l11.04 22.38c3.45,7.01 12.61,13.66 20.35,14.79l24.69 3.59c7.74,1.12 9.49,6.51 3.89,11.96l-17.87 17.41c-5.59,5.45 -9.09,16.22 -7.77,23.92l4.22 24.6c1.32,7.7 -3.26,11.03 -10.17,7.39l-22.09 -11.61c-6.91,-3.64 -18.24,-3.64 -25.15,0l-22.09 11.61c-6.91,3.64 -11.49,0.31 -10.17,-7.39l4.22 -24.6c1.32,-7.7 -2.18,-18.47 -7.77,-23.92l-17.86 -17.41c-5.6,-5.45 -3.85,-10.83 3.88,-11.96l24.69 -3.6c7.73,-1.12 16.89,-7.78 20.35,-14.79l11.04 -22.37z"/>
     <path class="fil4" d="M2620.43 191.61c3.46,-7 9.12,-7 12.58,0l11.05 22.38c3.46,7.01 12.62,13.66 20.35,14.79l24.69 3.59c7.73,1.12 9.49,6.51 3.89,11.96l-17.87 17.41c-5.6,5.45 -9.1,16.22 -7.77,23.92l4.22 24.6c1.32,7.7 -3.26,11.03 -10.17,7.39l-22.1 -11.62c-6.91,-3.63 -18.23,-3.63 -25.15,0l-22.08 11.61c-6.91,3.64 -11.49,0.31 -10.17,-7.39l4.22 -24.6c1.32,-7.7 -2.18,-18.47 -7.77,-23.92l-17.86 -17.41c-5.6,-5.45 -3.85,-10.83 3.88,-11.96l24.68 -3.59c7.73,-1.13 16.89,-7.78 20.35,-14.79l11.04 -22.37z"/>
    </g>
    <path class="fil3" d="M2171.21 397.22c15.58,-0.18 31.14,-1.55 46.73,-1.73 3.05,-0.03 3.06,-4.77 0,-4.74 -15.59,0.18 -31.15,1.55 -46.73,1.73 -3.06,0.04 -3.06,4.77 0,4.74z"/>
    <path class="fil3" d="M2239.63 395.49c55.69,-1.26 111.38,1.23 167.07,0.32 27.78,-0.45 55.35,-3.05 83.07,-4.41 29.14,-1.43 58.35,-0.94 87.5,-0.18 27.85,0.71 55.67,1.8 83.53,2.21 19.21,0.28 38.74,1.21 57.64,-2.88 30.93,-6.69 44.1,-31.73 46.15,-61.5 0.21,-3.05 -4.53,-3.03 -4.74,0 -1.14,16.52 -4.97,32.75 -17.26,44.58 -11.19,10.76 -28.03,13.65 -42.86,14.82 -22.08,1.74 -44.71,0.23 -66.82,-0.34 -26.25,-0.68 -52.49,-1.68 -78.75,-2.14 -52.42,-0.91 -104.38,4.57 -156.74,5.24 -52.6,0.67 -105.18,-1.65 -157.79,-0.46 -3.05,0.07 -3.06,4.81 0,4.74z"/>
   </g>
   <g>
    <path class="fil1" d="M587.07 1022.07c0,54.47 -44.17,98.65 -98.65,98.65l-389.76 0c-54.48,0 -98.65,-44.18 -98.65,-98.65l0 -114.78c0,-54.48 44.17,-98.65 98.65,-98.65l389.76 0c54.48,0 98.65,44.17 98.65,98.65l0 114.78z"/>
    <path class="fil14" d="M119.39 1006.95c0,-4.56 0.35,-8.7 1.06,-12.4 0.71,-3.7 1.98,-7.12 3.8,-10.27 1.83,-3.14 4.26,-6.08 7.3,-8.82 3.04,-2.74 6.95,-5.42 11.71,-8.06 4.06,-2.23 7.68,-4.18 10.88,-5.86 3.19,-1.67 5.88,-3.22 8.06,-4.63 2.18,-1.42 3.83,-2.87 4.94,-4.33 1.11,-1.47 1.67,-3.17 1.67,-5.1 0,-3.04 -1.21,-5.65 -3.65,-7.83 -2.43,-2.18 -5.93,-3.27 -10.49,-3.27 -2.43,0 -4.66,0.33 -6.69,0.99 -2.03,0.66 -3.93,1.55 -5.7,2.67 -1.77,1.11 -3.4,2.35 -4.86,3.72 -1.47,1.37 -2.82,2.82 -4.03,4.33l-13.08 -15.06c1.32,-1.42 3.19,-2.96 5.63,-4.63 2.43,-1.67 5.3,-3.25 8.59,-4.71 3.3,-1.47 6.95,-2.69 10.95,-3.65 4,-0.96 8.29,-1.44 12.85,-1.44 5.17,0 9.79,0.63 13.84,1.9 4.06,1.27 7.48,3.04 10.27,5.33 2.79,2.28 4.92,5.02 6.39,8.21 1.47,3.19 2.2,6.67 2.2,10.42 0,3.55 -0.66,6.69 -1.98,9.43 -1.32,2.74 -2.99,5.17 -5.02,7.3 -2.03,2.13 -4.23,3.98 -6.61,5.55 -2.38,1.57 -4.69,2.97 -6.92,4.18 -1.82,1.02 -3.77,2.13 -5.85,3.35 -2.08,1.22 -4.13,2.56 -6.16,4.03 -2.03,1.47 -3.88,3.07 -5.55,4.79 -1.67,1.73 -2.97,3.55 -3.88,5.48l43.64 0 0 18.4 -73.3 0zm127.9 19.31l0 -22.66 -44.41 0 0 -18.1 50.79 -65.39 13.99 0 0 65.24 13.38 0 0 18.25 -13.38 0 0 22.66 -20.38 0zm-24.03 -40.91l26.31 0 0 -34.37 -26.31 34.37zm164.54 -86.38l-75.43 107.97 -22.51 0 75.27 -107.97 22.66 0zm58.7 37.87l-49.12 0 0 -18.55 81.21 0 -53.68 107.97 -22.96 0 44.56 -89.42z"/>
    <path class="fil3" d="M338.3 1103.73c67.54,-16.53 142.82,16.7 204.36,-24.9 2.51,-1.7 0.15,-5.81 -2.39,-4.08 -60.79,41.08 -136.3,8.03 -203.23,24.41 -2.97,0.73 -1.71,5.3 1.26,4.57z"/>
    <path class="fil3" d="M565.06 928.81c1.05,10.19 0.54,20.36 1.92,30.53 1.61,11.77 3.35,23.14 3.23,35.05 -0.22,22.54 -2.12,46.52 -15.21,65.62 -1.73,2.53 2.37,4.89 4.09,2.39 11.5,-16.79 14.4,-36.99 15.52,-56.89 0.58,-10.29 0.81,-20.79 -0.6,-31.01 -2.12,-15.29 -2.65,-30.41 -4.22,-45.69 -0.31,-3.01 -5.05,-3.04 -4.74,0z"/>
   </g>
  </g>
 </g>
</svg>
