<?xml version="1.0" encoding="UTF-8"?>
<!DOCTYPE svg PUBLIC "-//W3C//DTD SVG 1.1//EN" "http://www.w3.org/Graphics/SVG/1.1/DTD/svg11.dtd">
<!-- Creator: CorelDRAW 2018 (64-Bit) -->
<svg xmlns="http://www.w3.org/2000/svg" xml:space="preserve" width="20.8706mm" height="21.1667mm" version="1.1" style="shape-rendering:geometricPrecision; text-rendering:geometricPrecision; image-rendering:optimizeQuality; fill-rule:evenodd; clip-rule:evenodd"
viewBox="0 0 622.66 631.49"
 xmlns:xlink="http://www.w3.org/1999/xlink">
 <defs>
  <style type="text/css">
   <![CDATA[
    .fil0 {fill:#452E74;fill-rule:nonzero}
   ]]>
  </style>
 </defs>
 <g id="Layer_x0020_1">
  <metadata id="CorelCorpID_0Corel-Layer"/>
  <path class="fil0" d="M476.92 457.04l-261.68 0c-21.95,0 -42.48,-7.83 -58.78,-20.6 -16.81,-13.15 -29.17,-31.57 -34.03,-52.06 -8.87,-37.4 -17.7,-77.42 -26.54,-117.5 -10.54,-47.81 -21.12,-95.7 -32.3,-141.38 -0.62,-2.55 -1.35,-6.27 -2.2,-10.65 -2.5,-12.83 -6.16,-31.54 -9.34,-35.46l-33.92 -22.98c-8.31,-5.49 -13.3,-11.44 -15.88,-17.32 -2.06,-4.71 -2.59,-9.35 -2.01,-13.7 0.57,-4.31 2.22,-8.29 4.48,-11.72 3.32,-5.02 8.05,-8.93 12.72,-10.98 16.49,-7.24 28.19,1.09 44.95,13.04 3.49,2.49 7.23,5.16 11.2,7.8l0.13 0.08c31.64,21.09 33.63,30.2 39.66,58 1.25,5.75 2.68,12.34 4.59,19.94 10.94,43.61 21.23,90.76 31.51,137.86 9.04,41.4 18.07,82.78 27.37,121.07 2.21,9.11 5.37,18.77 10.75,26.01 5.09,6.84 12.33,11.58 23,11.58l267.91 0c26.35,0 32.5,-27.16 36.14,-43.66l1 -4.51c5.63,-24.04 11.3,-49.94 17.02,-76.04 8.19,-37.41 16.49,-75.26 25,-109.24l1.27 -5c5.68,-22.07 12.12,-47.19 -9.52,-61.24 -5.64,-3.66 -10.41,-5.52 -15.98,-6.44 -5.82,-0.97 -12.68,-0.98 -22.22,-0.98l-96.58 0c-12.51,0.01 -26.79,0.16 -42.38,0.32 -37.08,0.38 -81.38,0.82 -104.27,-0.24 -13.25,-0.62 -21.17,-7.88 -24.59,-17.08 -1.41,-3.79 -2.02,-7.9 -1.91,-11.97 0.11,-4.06 0.95,-8.11 2.43,-11.81 3.76,-9.36 11.65,-16.59 22.75,-16.59l266.35 0c12.73,0 24.15,3.26 34.16,8.01 9.88,4.68 18.38,10.82 25.43,16.69 3.3,2.74 5.24,5.27 7.41,8.09l2.54 3.21c29.18,35.31 20.65,71.71 11.36,111.32l-0.58 2.49c-6.52,27.83 -12.6,55.2 -18.69,82.62 -8.69,39.1 -17.41,78.32 -26.49,115.26 -5.27,21.44 -17.16,40.99 -33.81,54.85 -15.52,12.92 -35.16,20.91 -57.39,20.91zm-43.72 108.53c1.77,3.91 5.95,6.98 12.57,6.98 5.44,0 8.9,-2.98 10.39,-6.78 0.61,-1.55 0.91,-3.27 0.91,-5 0.01,-1.7 -0.3,-3.42 -0.92,-5 -1.5,-3.83 -4.97,-6.83 -10.38,-6.83 -6.62,0 -10.8,3.06 -12.57,6.98 -0.68,1.5 -1.02,3.16 -1.02,4.82 0,1.67 0.34,3.33 1.02,4.83zm39.57 60.02c-8.35,3.71 -17.85,5.9 -28.56,5.9 -14.19,0 -27.2,-4.13 -38.13,-11.42 -11.21,-7.49 -20.22,-18.28 -26.05,-31.32 -9.58,-21.43 -7.59,-42.43 1.35,-59.56 5.56,-10.65 13.83,-19.79 23.67,-26.58 9.86,-6.81 21.32,-11.29 33.26,-12.6 18.92,-2.08 39.03,3.72 55.89,20.66l0.87 0.88c10.73,11.19 17.21,25.22 19.42,39.44 2.29,14.72 0.01,29.71 -6.86,42.09 -3.23,4.91 -7.43,10.41 -11.01,15.14 -6.49,7.05 -14.39,13.16 -23.84,17.36zm-238.95 -60.02c1.77,3.91 5.95,6.98 12.57,6.98 5.44,0 8.9,-2.98 10.39,-6.78 0.62,-1.58 0.93,-3.29 0.93,-5 -0.01,-1.73 -0.33,-3.44 -0.93,-5 -1.5,-3.83 -4.96,-6.83 -10.38,-6.83 -6.63,0 -10.81,3.06 -12.57,6.98 -0.68,1.5 -1.02,3.16 -1.02,4.82 0,1.66 0.34,3.33 1.02,4.83zm59.45 46.75c-12.68,11.9 -29.7,19.17 -48.43,19.17 -14.19,0 -27.2,-4.13 -38.13,-11.42 -11.21,-7.49 -20.22,-18.28 -26.05,-31.32 -3.42,-7.64 -5.36,-15.25 -6.04,-22.65 -1.44,-15.62 2.76,-30.27 10.62,-42.48 7.83,-12.15 19.31,-21.9 32.48,-27.79 7.08,-3.17 14.67,-5.22 22.43,-5.93 3.57,-0.33 7.08,-0.36 10.48,-0.12 16.91,1.19 32.4,8.93 44.02,20.55 11.6,11.6 19.38,27.12 20.92,43.9 0.33,3.57 0.37,7.16 0.12,10.75 -1.32,18.71 -9.68,35.38 -22.42,47.34zm9.5 -350.64c2.77,2.95 5.24,5.58 7.23,7.41l80.55 -79.8c0.86,-0.86 2.03,-2.12 3.32,-3.51 1.5,-1.61 3.2,-3.44 5.22,-5.48 12.07,-12.18 30.38,-26.11 49.5,-7.14 2.17,2.15 4,4.83 5.27,8.03l0.12 0.27c1.13,2.95 1.79,6.33 1.79,10.12 0,15.01 -3.84,18.79 -12.38,27.19 -18.54,18.31 -36.89,36.88 -55.32,55.31 -9.42,9.41 -17.6,17.78 -24.74,25.09 -23.75,24.31 -36.39,37.25 -47.78,40.42 -13.93,3.87 -23.7,-5.95 -44.54,-26.93l-5.86 -5.88c-1.77,-1.77 -3.99,-3.84 -6.35,-6.02 -3.12,-2.9 -6.48,-6.02 -9.79,-9.43 -13.73,-14.14 -24.62,-31.3 -6.35,-49.03 21.92,-21.27 45.07,3.38 60.11,19.4z"/>
 </g>
</svg>
