<?xml version="1.0" encoding="UTF-8"?>
<!DOCTYPE svg PUBLIC "-//W3C//DTD SVG 1.1//EN" "http://www.w3.org/Graphics/SVG/1.1/DTD/svg11.dtd">
<!-- Creator: CorelDRAW 2018 (64-Bit) -->
<svg xmlns="http://www.w3.org/2000/svg" xml:space="preserve" width="19.0594mm" height="21.1666mm" version="1.1" style="shape-rendering:geometricPrecision; text-rendering:geometricPrecision; image-rendering:optimizeQuality; fill-rule:evenodd; clip-rule:evenodd"
viewBox="0 0 2849.73 3164.79"
 xmlns:xlink="http://www.w3.org/1999/xlink">
 <defs>
  <style type="text/css">
   <![CDATA[
    .fil0 {fill:#452E74;fill-rule:nonzero}
   ]]>
  </style>
 </defs>
 <g id="Layer_x0020_1">
  <metadata id="CorelCorpID_0Corel-Layer"/>
  <path class="fil0" d="M2181.97 2365.25c-81.31,-31.34 -168.42,-60.21 -218.39,-73.29 -11.5,39.49 -36.05,98.25 -64.31,159.31 -40.86,88.4 -89.68,182.04 -117.64,228.42 -5.56,9.23 -25.58,39.43 -51.57,78.59 -54.86,82.71 -136.81,206.34 -164.19,254.76l1125.62 0c-1.79,-37.26 -10.08,-79.57 -21.35,-120.78 -16.63,-60.88 -39.73,-119.38 -58.19,-156.32 -29.22,-58.4 -67.07,-113.86 -111.26,-163.59 -44.02,-49.64 -94.38,-93.58 -148.73,-129.18 -33.33,-21.81 -99.1,-50.63 -169.22,-77.64l-0.78 -0.27zm-115.19 205.77c-24.09,-10.97 -42.55,-36.39 -42.55,-82.32 0,-25.73 21.31,-48.14 47.97,-58.27 9.48,-3.59 19.89,-5.71 30.19,-5.86 10.6,-0.15 21.25,1.82 31.07,6.28 24.09,10.97 42.57,36.39 42.57,82.37 0,25.7 -21.31,48.11 -47.97,58.24 -9.49,3.59 -19.89,5.7 -30.19,5.85 -10.6,0.13 -21.26,-1.81 -31.08,-6.28zm218.94 124.37c-28.8,-22.44 -47.11,-36.75 -47.11,-84.24 0,-18.15 9.73,-35.6 23.98,-48.41 14.22,-12.8 33.42,-21.31 51.88,-21.31 37.89,0 88.8,41.25 133.34,91.98 54.95,62.57 101.85,141.47 101.85,173.77 0,14.17 -8.4,34.4 -22.43,50.12l-0.81 0.96c-8.87,9.66 -20.05,17.85 -32.98,22.23 -13.43,4.55 -28.57,4.93 -44.5,-1.41 -19.54,-7.77 -40.24,-25.91 -60.14,-59.49 -7.63,-12.89 -14.47,-24.21 -21.67,-35.18 -7.01,-10.68 -14.43,-21.1 -23.27,-32.43l-0.57 -0.69c-21.77,-27.99 -41.63,-43.45 -57.59,-55.9zm-1364.77 -321.45c-10.81,-25.07 -23.71,-54.95 -31.74,-81.98 -27.03,7.25 -56.16,17.6 -84.73,27.77 -13.62,4.81 -26.97,9.6 -42.24,14.67l-2.95 1.05c-140.19,46.65 -257.53,85.78 -362.54,189.54 -65.09,64.35 -127.66,151.64 -171.99,246.32 -36.72,78.47 -60.93,162 -63.59,241.74l1126.58 0c-9.84,-18.35 -25.84,-42.85 -36.71,-59.54l-7.19 -11.03c-39.49,-61.54 -70.54,-107.74 -97.1,-147.25 -83.16,-123.68 -123.25,-183.35 -222.11,-412.7l-3.69 -8.58zm331.77 225.89c-10.47,9.82 -20.62,19.32 -29.1,30.13l105.16 160.43c19.05,28.23 75.76,111.85 97.53,153.72 19.21,-37.3 67.58,-108.83 114.29,-177.78l0.61 -1c35.42,-52.35 69.85,-103.2 88.86,-134.88l-210.93 -208.17c-7.66,6.88 -14.13,14.94 -20.75,23.19 -6.47,8.07 -13.16,16.39 -21.43,24.55 -41.04,43.44 -81.2,88.47 -124.25,129.81zm273.72 -292.22l183.12 180.44 98.95 -222c2.84,-7.36 4.34,-11.95 6.04,-17.27l4.66 -13.83 11.44 -29.35c2.38,-10.51 -14.43,-40.85 -32.61,-73.62 -13.13,-23.68 -26.93,-48.56 -35.76,-71.1 -20.8,20.16 -55.95,58.4 -93.54,99.3 -52.38,57 -109.42,119.06 -142.3,147.44zm-357.2 -139.16c-26.78,-28.38 -66.85,-70.81 -89.67,-87.54 -9.57,24.28 -27.11,57.15 -39.97,81.19l-8.99 16.97c-10.81,20.48 -10.68,20.87 -5.4,33.84l19.12 50.49c16.73,45.32 32.74,88.56 56.14,134.99 8.85,17.54 16.58,34.75 24.16,51.69 5.67,12.72 11.33,25.34 17.46,37.98l167.27 -178.08c-18.72,-23.24 -55.82,-58.66 -85.99,-87.44l-32.45 -31.34 -21.71 -22.74zm290.5 -9.43c9.48,-10.08 18.44,-20.44 25.76,-30.04l-141.7 -3.27 71.98 74.19c13.17,-10.27 29.14,-25.16 43.96,-40.88zm-51.69 -519.38l-85.76 0c-30.76,0 -50.06,12.37 -58.13,28.18 -2.96,5.7 -4.44,12.04 -4.44,18.45 0,6.03 1.3,12.01 3.9,17.45l0.54 0.97c8.07,15.83 27.38,28.21 58.13,28.21l85.76 0c30.73,0 49.98,-12.37 58.03,-28.18 2.98,-5.7 4.46,-12.05 4.46,-18.45 0,-6.03 -1.32,-12.01 -3.92,-17.45l-0.54 -0.99c-8.04,-15.8 -27.3,-28.2 -58.03,-28.2zm-640.75 -122.46l0 28.23c0,22.68 4.49,36.93 13.14,46.02 5.71,6 13.7,10.41 23.71,13.95 -1.63,-13.59 -4.59,-26.87 -7.58,-40.13 -3.51,-15.71 -7.06,-31.43 -8.63,-48.07l-20.65 0zm1318.27 -151.79l57.47 0c22.05,0 38.52,-5.41 49.03,-15.92 10.51,-10.51 15.92,-26.97 15.92,-49.03l0 -291.7 -93.42 0c-0.7,35.7 -3.8,73.46 -6.79,109.91 -2.09,25.52 -4.14,50.49 -5.22,72.28l-17 174.46zm-1440.83 -356.65l0 291.7c0,58.9 39.89,65.7 87.32,65.7l35.7 -0.52c-1.7,-19.38 -5.32,-46.55 -7.73,-64.8 -12.07,-92.97 -14.46,-197.48 -20.99,-292.07l-94.3 0zm1287.37 327.56c9.94,-84.58 22.97,-194.97 24.58,-266.85 -27.26,-1.79 -60.23,-7.86 -88.5,-13.07l-27.74 -4.96c-88.51,-14.53 -179.35,-43.88 -265.42,-83.54 -88.53,-40.79 -172.32,-92.67 -243.71,-150.67l-0.91 -0.72c-7.61,-6.21 -13.2,-11.38 -18.88,-16.58 -5.73,-5.37 -11.71,-10.87 -20.29,-17.85 -7.97,-6.47 -12.34,-10.94 -15.33,-13.95 -1.27,-1.26 -0.1,-1.33 -1.03,-1.64 -0.66,-0.16 -1.79,0.51 -6.7,1.03l-11.9 1.2c-22.34,1.97 -42.21,6 -60.6,11.27 -17.99,5.1 -34.9,11.74 -51.46,19.05 -34.16,14.98 -63.93,31.47 -90.49,51.14 -26.2,19.39 -49.54,42.13 -71.13,69.81l-39.28 50c-25.55,32.18 -38.61,48.62 -44,61.05l-0.28 0.73c-4.59,10.94 -3.36,21.67 -0.96,43 1.09,9.72 2.45,21.43 3.53,35l24.28 269.18c3.9,34.36 12.51,103.44 22.65,160.69 5.2,29.38 10.77,55.29 16.06,70.75l155.6 0c7.31,-27.57 29.35,-56.01 57.34,-78.39 32.19,-25.73 72.85,-44.06 108,-44.06l159.19 0c42.63,0 87.77,23.8 122.01,58.01 34.25,34.22 58.07,79.39 58.07,121.99l0 36.77c0,42.97 -23.64,88.14 -57.82,122.29 -34.12,34.09 -79.24,57.71 -122.26,57.71 -21.14,0 -38.95,0.54 -56.14,1.03 -83.49,2.45 -155.6,4.56 -212.32,-46.16 -13.99,-12.48 -25.72,-23.59 -35.48,-37.17 -8.19,-11.41 -14.73,-24.18 -19.6,-40.24l-86.27 0c6.74,11.12 14.01,21.89 21.68,32.22l0.64 0.81c63.63,85.27 157.98,144.69 261.82,169.3 103.86,24.61 217.21,14.44 318.8,-39.31 20.35,-10.77 40.38,-23.43 59.84,-37.93 83.67,-62.5 134.73,-133.85 167.67,-215.43 33.3,-82.4 48.56,-175.8 60.44,-281.21l6.31 -54.31zm-937.64 -752.56c-46.62,59.1 -80.43,127.93 -93.64,197.39l12.51 -11.99c11.71,-11.32 23.79,-23.01 36.41,-33.21 27.5,-22.34 46.05,-33.3 71.86,-48.46l18.64 -11.03c27.14,-16.1 70.66,-33.43 117.13,-45.92 41.03,-11.03 84.72,-18.56 121.98,-18.56 57.89,0 60.82,3.05 80.62,23.88 6.95,7.31 16.72,17.55 35.11,31.85 65.04,50.61 117.61,91.13 175.15,124.65 57.42,33.46 120.62,60.57 207.35,84.82l0.51 0.13c26.58,7.43 59.54,16.21 94.44,23.09 29.56,5.8 60.6,10.29 90.4,11.44 -1.08,-73.52 -10.15,-138.33 -30.85,-197.04 -21.89,-62.08 -56.95,-117.84 -109.43,-170.45l-0.84 -0.78c-75.81,-75.81 -173.68,-121.72 -277.85,-140.97 -113.14,-20.87 -233.74,-10.42 -341.81,27.15 -78.66,27.27 -152.18,83.69 -207.68,153.99zm-256.42 273.29l0 -9.88c0,-111.76 37.81,-218.7 99.8,-310.86 66.25,-98.5 160.36,-180.29 265.44,-233.1 164.46,-82.56 363.52,-90.76 541.73,-34.11 171.99,54.66 324.86,169.75 409.02,336.63 19.3,38.32 34.75,81.22 45.18,127.09 8.99,39.52 14.35,81.28 15.33,124.23l87.05 0c-3.1,-90.86 -34.54,-189.95 -83.33,-281.62 -54.01,-101.46 -129.15,-193.73 -210.63,-255.77 -34.33,-26.18 -58.25,-43.09 -82.94,-57.53l-0.84 -0.45c-25.06,-14.62 -51.48,-27.09 -90.79,-44.44 -97.96,-43.29 -200.07,-63.66 -302.34,-63.53 -106.5,0.15 -213.56,22.64 -316.56,64.67 -77.82,31.68 -121.71,66.22 -177.18,109.78l-24.92 19.54c-68.4,53.12 -135.18,141.82 -184.15,240.07 -44.11,88.56 -73.62,184.66 -76.75,269.28l86.86 0zm-245.06 480.15l0 -447.18c0,-54.72 10.08,-117.39 24.86,-177.09 17.48,-70.35 41.76,-136.9 64.01,-181.68l0.45 -0.99c39.31,-78.74 80.58,-142.72 129.42,-200.18 48.74,-57.34 105.1,-108.1 174.73,-160.51 105.38,-79.3 230.24,-130.59 361.83,-154.26 135.79,-24.42 279,-19.54 415.59,14.07 61.26,15.06 135.19,44.29 203.72,80.19 64.26,33.66 124.09,73.37 164.68,113.01 17.22,16.82 31.34,30.07 43.52,41.49 39.74,37.25 59.43,55.71 112.53,129.2l0.63 0.81c16.6,22.94 34.09,48.91 49.51,75.3 12.77,21.84 24.39,44.32 33.25,66.07l0.34 0.79c22.29,54.96 44.09,109.61 60.47,167.52 16.48,58.24 27.27,119.27 27.27,186.25l0 447.18c0,42.64 -23.79,87.78 -58,121.99 -34.21,34.21 -79.35,58 -121.99,58l-115.07 0c-1.23,12.47 -3.54,27.44 -6.31,42.82 -5.37,29.77 -12.66,61.68 -17.25,79.75l-0.27 1.26c-4.66,18.35 -11,38.44 -18.18,58.16 -7.22,19.86 -15.43,39.55 -23.67,56.8 -50.09,104.32 -88.34,142.34 -109.36,163.27 -8.33,8.27 -13.13,13.05 -13.47,16.36 -0.75,7.07 6.92,21.7 24.85,55.96 14.1,26.91 33.96,64.83 58.97,117.42l5.91 13.52c3.14,7.55 3.38,8.09 18.64,13.8 35.29,13.17 81.71,27.71 129.86,42.76 78.09,24.43 160.82,50.31 212.73,75.93l9.52 4.69c27.27,13.43 53.35,26.27 79.92,42.33 46.99,33.12 107.73,79.47 151.7,116.37 18.2,17.97 43.7,46.35 67.57,75.27 21.2,25.7 41.19,51.97 53.63,71.74 53.71,85.61 93.75,166.32 120.36,252.3 26.64,86.12 39.85,177.21 39.85,283.47 0,12.92 -9.63,29.1 -22.04,41.52 -12.42,12.45 -28.54,22.11 -41.51,22.11l-2719.6 0c-10.77,0 -20.41,-2.9 -28.92,-8.45 -23.56,-15.34 -35.97,-51.02 -37.5,-99.83 -1.38,-45.17 6.23,-103.11 22.59,-166.97 38.52,-150.3 125.86,-335.18 258.25,-467.63 23.15,-21.9 59.52,-52.23 84.91,-71.83 121.18,-90.2 223.63,-123.35 355.61,-166.04l123.88 -40.79 35.09 -10.62 5.2 -8.82c9.12,-14.01 42.93,-78.35 66.13,-130.62 13.52,-30.41 23.56,-55.26 22.26,-58.94l-14.14 -16.81c-28.48,-34.15 -84.09,-100.78 -101.97,-155.23l-15.8 0.25c-35.91,0.79 -66.83,1.5 -97.44,-11.83 -18.78,-8.19 -31.38,-14.26 -42.81,-21.86 -11.6,-7.72 -21.62,-16.73 -35.06,-30.67 -55.53,-57.58 -53.8,-115.52 -51.96,-176.25l0.49 -20.41c-16.4,-5.08 -29.9,-12.17 -41.92,-20.95 -13.88,-10.17 -25.67,-22.62 -37.89,-36.89l-0.67 -0.76c-10.53,-12.41 -22.17,-31.11 -30.44,-51.81 -6.85,-17.19 -11.5,-35.94 -11.5,-53.87zm388.12 795.03l0.76 -0.13c0.79,-0.42 -0.21,0.03 -0.76,0.13z"/>
 </g>
</svg>
