<?xml version="1.0" encoding="UTF-8"?>
<!DOCTYPE svg PUBLIC "-//W3C//DTD SVG 1.1//EN" "http://www.w3.org/Graphics/SVG/1.1/DTD/svg11.dtd">
<!-- Creator: CorelDRAW 2018 (64-Bit) -->
<svg xmlns="http://www.w3.org/2000/svg" xml:space="preserve" width="21.1667mm" height="21.1667mm" version="1.1" style="shape-rendering:geometricPrecision; text-rendering:geometricPrecision; image-rendering:optimizeQuality; fill-rule:evenodd; clip-rule:evenodd"
viewBox="0 0 331.34 331.34"
 xmlns:xlink="http://www.w3.org/1999/xlink">
 <defs>
  <style type="text/css">
   <![CDATA[
    .fil1 {fill:#FF5914}
    .fil0 {fill:white}
   ]]>
  </style>
 </defs>
 <g id="Layer_x0020_1">
  <metadata id="CorelCorpID_0Corel-Layer"/>
  <g id="_2594363925664">
   <rect class="fil0" x="0" y="-0.01" width="331.34" height="331.34" rx="10.32" ry="75.74"/>
   <path class="fil1" d="M99.55 156.05l56.5 0 0 -56.5c0,-5.3 4.32,-9.62 9.62,-9.62l0 0c5.3,0 9.62,4.32 9.62,9.62l0 56.5 56.5 0c5.3,0 9.62,4.32 9.62,9.62l0 0c0,5.3 -4.32,9.62 -9.62,9.62l-56.5 0 0 56.5c0,5.3 -4.32,9.62 -9.62,9.62l0 0c-5.3,0 -9.62,-4.32 -9.62,-9.62l0 -56.5 -56.5 0c-5.3,0 -9.62,-4.32 -9.62,-9.62l0 0c0,-5.3 4.32,-9.62 9.62,-9.62z"/>
  </g>
 </g>
</svg>
