<?xml version="1.0" encoding="UTF-8"?>
<!DOCTYPE svg PUBLIC "-//W3C//DTD SVG 1.1//EN" "http://www.w3.org/Graphics/SVG/1.1/DTD/svg11.dtd">
<!-- Creator: CorelDRAW 2018 (64-Bit) -->
<svg xmlns="http://www.w3.org/2000/svg" xml:space="preserve" width="21.166mm" height="16.8548mm" version="1.1" style="shape-rendering:geometricPrecision; text-rendering:geometricPrecision; image-rendering:optimizeQuality; fill-rule:evenodd; clip-rule:evenodd"
viewBox="0 0 518.44 412.84"
 xmlns:xlink="http://www.w3.org/1999/xlink">
 <defs>
  <style type="text/css">
   <![CDATA[
    .fil0 {fill:#452E74}
   ]]>
  </style>
 </defs>
 <g id="Layer_x0020_1">
  <metadata id="CorelCorpID_0Corel-Layer"/>
  <g id="_2594631396224">
   <g>
    <path class="fil0" d="M-0 266.7c0.1,11.59 0.68,20.12 3.62,36.34 4.53,24.99 5.2,24.65 12.21,45.51 4.14,12.3 23.4,54.24 34.15,61.04 11.07,7.01 19.11,0.8 28.58,-3.11 8.68,-3.58 17.56,-8.65 25.74,-12.74 12.3,-6.14 18.22,-8.6 18.22,-23.29 0,-10.31 -10.23,-19.24 -20.25,-19.24 -8.42,0 -28.03,12.69 -34.43,14.18 -2.59,-11.11 -20.1,-29.87 -26.18,-86.22 -2.73,-25.26 0.63,-51.65 6.52,-75.2 1.95,-7.79 4.8,-14.61 6.5,-21.86l31.82 14.8c24.4,6.46 38.7,-28.11 10.57,-39.99 -6.75,-2.85 -18.33,-9.91 -24.17,-11.27 29.51,-44.07 57.73,-70.09 110.66,-90.84 13.39,-5.25 40.51,-12.45 55.4,-12.45l0 31.39c0,25 40.51,25 40.51,0l0 -31.39c37.11,0 68.56,22.03 81.94,19.24 17.62,-3.66 20.89,-24.27 10.46,-34.69 -5.67,-5.67 -33.69,-14.72 -42.42,-17.33 -40.03,-11.99 -86.2,-12.35 -127.53,-3.26 -21.14,4.65 -50.46,15.35 -68.85,26.33 -3.82,2.28 -6.51,3.58 -10.16,6.05 -43.26,29.21 -58.33,45.26 -86.88,88.29 -20.62,31.09 -36.04,85.59 -36.04,123.95l0 15.73z"/>
    <path class="fil0" d="M260.23 279.32c-21.61,0 -25.11,-22.85 -15.94,-33.16l32.75 -24.96c11.7,-8.05 22.56,-15.89 33.83,-23.89 4.54,-3.22 31.6,-22.54 34.42,-23.3l-49.04 69.44c-10.32,13.65 -22.45,35.87 -36.02,35.87zm-61.77 -23.29c0,20.37 4.42,33.18 18.47,47.35 21.65,21.83 56.2,22.81 80.35,3.88 12.24,-9.58 56.56,-73.7 66.64,-88.29l21.14 -30.5c16.39,-21.82 35.72,-52.98 52.95,-76.66 5.8,-7.97 8.53,-10.86 8.53,-20.84 0,-10.31 -10.23,-19.24 -20.25,-19.24 -9.09,0 -25.69,13.79 -32.4,18.23l-45.57 31.39c-22.85,15.13 -120.19,82.73 -134.95,97.94 -6.77,6.99 -14.91,23.28 -14.91,36.73z"/>
   </g>
   <path class="fil0" d="M456.67 160.84c0,7.95 4.96,15.36 7.98,24.42 2.77,8.29 5.04,15.28 7.22,24.17 6.5,26.63 7.58,57.77 2.89,84.94 -1.48,8.6 -3.52,17.73 -5.82,25.56 -3.62,12.32 -7.76,23.29 -13.29,34.31 -1.68,3.35 -4.17,7.28 -5.07,11.14 -7.03,-0.59 -26.01,-14.18 -35.44,-14.18 -11.01,0 -20.25,8.52 -20.25,22.28 0,16.28 24.86,22.98 43.54,32.41 3.59,1.81 9.69,4.69 13.36,5.91 10.5,3.47 19.36,-2.14 24.82,-11.28 9.42,-15.75 11.84,-18.69 20.21,-37.51 12.69,-28.53 20.14,-61.25 21.61,-94l0 -23.77c-0.93,-20.39 -4.28,-40.39 -10.25,-58.96 -0.73,-2.27 -1.24,-4.15 -2.13,-6.98 -0.67,-2.14 -1.47,-3.87 -2.43,-6.68 -1.82,-5.37 -3.46,-9.4 -5.28,-13.96 -3.55,-8.92 -9.16,-18.07 -20.41,-18.07 -11.37,0 -21.27,9.01 -21.27,20.25z"/>
  </g>
 </g>
</svg>
