<?xml version="1.0" encoding="UTF-8"?>
<!DOCTYPE svg PUBLIC "-//W3C//DTD SVG 1.1//EN" "http://www.w3.org/Graphics/SVG/1.1/DTD/svg11.dtd">
<!-- Creator: CorelDRAW 2018 (64-Bit) -->
<svg xmlns="http://www.w3.org/2000/svg" xml:space="preserve" width="24.8651mm" height="21.1664mm" version="1.1" style="shape-rendering:geometricPrecision; text-rendering:geometricPrecision; image-rendering:optimizeQuality; fill-rule:evenodd; clip-rule:evenodd"
viewBox="0 0 448.88 382.11"
 xmlns:xlink="http://www.w3.org/1999/xlink">
 <defs>
  <style type="text/css">
   <![CDATA[
    .fil0 {fill:#452E74}
   ]]>
  </style>
 </defs>
 <g id="Layer_x0020_1">
  <metadata id="CorelCorpID_0Corel-Layer"/>
  <path class="fil0" d="M172.2 186.46c24.03,0 39.25,-3.32 58.45,-16.39 4.65,-3.17 8.16,-6.48 12.11,-10.43 7.33,-7.34 14.28,-15.99 18.71,-25.47 34.19,-73.13 -32,-149.08 -104.61,-131.65 -17.97,4.31 -33.61,13.3 -44.84,24.59 -11.3,11.37 -20.32,25.42 -24.94,43.58 -9.47,37.21 4.93,75.12 34.24,97.24 11.26,8.51 31.72,18.53 50.88,18.53zm188.88 -65.65c48.49,0 87.8,39.3 87.8,87.8 0,48.49 -39.31,87.8 -87.8,87.8 -48.49,0 -87.8,-39.3 -87.8,-87.8 0,-48.49 39.3,-87.8 87.8,-87.8zm-37.94 133.11c2.74,0 16.74,-1.59 18.81,-2.35 1.97,-0.71 2.84,-1.61 4.18,-2.94 2.32,-2.32 41.95,-41.72 42.66,-42.76l-24.86 -24.96c-1.04,0.31 -7.33,7.02 -8.2,7.91l-36.09 36.28c-2.44,2.71 -2.62,8.69 -3.03,12.98l-0.83 7.28c-0.59,4.33 3.09,8.56 7.38,8.56zm45.08 -77.5l25.06 25.16 6.52 -6.43c1.74,-1.74 4.97,-4.62 5.91,-6.95 1.42,-3.54 0.75,-7.37 -1.19,-9.93l-12.94 -12.96c-2.49,-2 -6.33,-2.68 -9.9,-1.33 -2.62,0.99 -7.74,6.6 -10.25,9.12 -0.87,0.87 -2.62,2.44 -3.21,3.32zm-368.22 168.72c0,12.82 6.01,21.36 12.83,27.74 7.67,7.18 17.78,9.22 32.25,9.22l265.97 0c14.14,0 21.33,-2.07 29.64,-8.22 12.23,-9.05 13.63,-20.41 13.63,-33.25 0,-2.5 -3.05,-12.59 -5.47,-19.81 -56.4,-6.07 -100.36,-53.71 -100.64,-111.65 -19.23,7.03 -49.46,11.55 -67.9,11.55 -62.26,0 -74.86,-17.13 -97.37,-17.13 -15.83,0 -31.11,8.59 -39.02,16.88 -10.46,10.96 -13.23,24.02 -17.9,38 -4.65,13.9 -8.81,28.21 -13.53,42.37 -2.93,8.82 -12.5,36.26 -12.5,44.3z"/>
 </g>
</svg>
