<?xml version="1.0" encoding="UTF-8"?>
<!DOCTYPE svg PUBLIC "-//W3C//DTD SVG 1.1//EN" "http://www.w3.org/Graphics/SVG/1.1/DTD/svg11.dtd">
<!-- Creator: CorelDRAW 2018 (64-Bit) -->
<svg xmlns="http://www.w3.org/2000/svg" xml:space="preserve" width="21.1666mm" height="19.4886mm" version="1.1" style="shape-rendering:geometricPrecision; text-rendering:geometricPrecision; image-rendering:optimizeQuality; fill-rule:evenodd; clip-rule:evenodd"
viewBox="0 0 1736.1 1598.47"
 xmlns:xlink="http://www.w3.org/1999/xlink">
 <defs>
  <style type="text/css">
   <![CDATA[
    .fil0 {fill:#FF5914;fill-rule:nonzero}
   ]]>
  </style>
 </defs>
 <g id="Layer_x0020_1">
  <metadata id="CorelCorpID_0Corel-Layer"/>
  <path class="fil0" d="M1116.19 1342.9c40.53,-23.45 92.5,-9.64 115.96,30.89 23.45,40.53 9.64,92.5 -30.89,115.95 -61.06,35.61 -126.4,62.78 -193.9,81 -67.7,18.28 -137.75,27.72 -208.11,27.72 -220.42,0 -420.19,-89.54 -564.83,-234.12 -144.88,-144.93 -234.42,-344.7 -234.42,-565.11 0,-220.41 89.54,-420.18 234.12,-564.81 144.94,-144.88 344.71,-234.42 565.13,-234.42 70.2,0 140.17,9.39 207.86,27.62 67.4,18.13 132.64,45.34 193.65,80.8 40.53,23.45 54.34,75.43 30.88,115.95 -23.45,40.53 -75.43,54.34 -115.95,30.89 -47.86,-27.82 -99.19,-49.16 -152.47,-63.53 -52.94,-14.26 -108.13,-21.6 -163.97,-21.6 -173.87,0 -331.26,70.41 -445.05,184.05 -113.65,113.8 -184.05,271.18 -184.05,445.04 0,173.86 70.41,331.24 184.05,445.04 113.8,113.65 271.19,184.05 445.05,184.05 55.95,0 111.19,-7.38 164.21,-21.69 53.29,-14.36 104.77,-35.8 152.72,-63.73zm-317.44 -634.16l630.62 0 -77.39 -77.39c-34.85,-34.9 -34.85,-91.8 0,-126.66l0 0c34.85,-34.85 91.75,-34.85 126.66,0l227.65 227.7 1.6 1.5 4.58 4.68 0.45 0.55 0.95 1.11 0.55 0.65 0.91 1.01 0.55 0.71 0.8 1 0.6 0.75 0.71 0.95 0.66 0.85 0.65 0.96 0.66 0.9 0.6 0.85 0.66 0.95 0.55 0.9 0.66 1.01 0.5 0.85 0.61 1.06 0.5 0.8 0.6 1.1 0.51 0.85 0.55 1.06 0.45 0.85 0.55 1.11 0.46 0.9 0.5 1.11 0 0.1 0.9 1.91 0 0.1 0.4 0.8c4.62,10.89 7.18,22.85 7.18,35.25l0 0c0,28.67 -13.45,54.34 -34.35,71.01l-223.12 223.13c-34.91,34.85 -91.81,34.85 -126.66,0l0 0c-34.85,-34.86 -34.85,-91.76 0,-126.66l76.63 -76.63 -629.86 0c-49.97,0 -90.85,-40.88 -90.85,-90.85l0 0c0,-49.97 40.88,-90.85 90.85,-90.85z"/>
 </g>
</svg>
