<?xml version="1.0" encoding="UTF-8"?>
<!DOCTYPE svg PUBLIC "-//W3C//DTD SVG 1.1//EN" "http://www.w3.org/Graphics/SVG/1.1/DTD/svg11.dtd">
<!-- Creator: CorelDRAW 2018 (64-Bit) -->
<svg xmlns="http://www.w3.org/2000/svg" xml:space="preserve" width="16.79mm" height="21.166mm" version="1.1" style="shape-rendering:geometricPrecision; text-rendering:geometricPrecision; image-rendering:optimizeQuality; fill-rule:evenodd; clip-rule:evenodd"
viewBox="0 0 554.97 699.61"
 xmlns:xlink="http://www.w3.org/1999/xlink">
 <defs>
  <style type="text/css">
   <![CDATA[
    .fil0 {fill:#452E74}
   ]]>
  </style>
 </defs>
 <g id="Layer_x0020_1">
  <metadata id="CorelCorpID_0Corel-Layer"/>
  <path class="fil0" d="M248.83 487.8c-11.47,0 -26.62,-19.09 -37.91,-30.38 -8.06,-8.06 -29.32,-25.6 -30.87,-36.13 -2.85,-19.12 19.83,-31.3 34.32,-16.53 7.91,8.08 26.64,28.6 34.45,33.84 5.93,-1.58 9.25,-7.17 13.32,-11.26l63.56 -63.54c6.76,-6.76 18.13,-22.2 29.72,-22.2 9.56,0 17.57,7.65 19.58,16.04 2.72,11.41 -4.63,17.51 -11.06,23.92l-92.21 92.21c-6.36,6.36 -10.78,14.01 -22.91,14.01zm-65.57 -349.82c0,-4.75 1.6,-17.09 2.31,-20.87 1.5,-7.83 3.18,-12.71 5.9,-18.74 2.21,-4.88 4.86,-10.78 7.96,-15.25l10.96 -13.65c1.91,-2.11 3.74,-3.05 5.95,-4.96 12.43,-10.73 23.16,-16.42 39.56,-20.57 22.12,-5.57 40.35,-2.42 60.51,6 33.74,14.11 55.4,51 55.4,88.04l-188.54 0zm229.55 0c0,-25.63 -3.66,-38.87 -11.11,-57.21 -6.15,-15.18 -14.08,-24.15 -23.24,-35.52 -1.88,-2.31 -1.91,-2.88 -4.22,-5.36 -3.35,-3.59 -5.36,-4.17 -8.92,-7.48 -9.13,-8.49 -9.97,-8.08 -19.73,-14.41 -34.96,-22.75 -85.37,-22.96 -124.48,-6.13 -8.26,3.56 -24.18,13.63 -30.69,19.88 -11.57,11.06 -12.99,10.09 -24.68,27.23 -16.25,23.82 -23.49,46.63 -23.49,78.99 -20.06,0 -40.09,0.08 -60.15,-0.03 -20.67,-0.1 -32.39,8.34 -41.19,20.31 -12.94,17.62 -11.52,51.87 -13.53,78.03l-13.58 170.88c-0.41,8.42 -2.52,20.14 -2.75,28.71 -0.69,27.15 -5.67,60.99 -6.81,84.74 -0.43,9.15 -0.54,19.17 -1.76,28.3 -2.09,15.61 -4.07,40.73 -0.66,57.43 9.79,48.03 45.94,83.93 92.57,91.93 3.53,0.59 14.57,1.02 30.46,1.32l274.27 0 49.42 0c18.33,-1.25 35.47,-5.57 54.99,-18.59 36.59,-24.35 51.23,-57.86 51.41,-101.7 0.05,-16.25 -5.87,-66.33 -6.84,-86.09l-8.62 -113.01c-5.26,-40.04 -6.33,-102.66 -11.54,-141.49 -3.31,-24.86 0.59,-60.64 -13.22,-79.68 -8.69,-12 -20.29,-21.13 -40.4,-21.13 -20.49,0.02 -41.01,0.05 -61.53,0.05z"/>
 </g>
</svg>
