<?xml version="1.0" encoding="UTF-8"?>
<!DOCTYPE svg PUBLIC "-//W3C//DTD SVG 1.1//EN" "http://www.w3.org/Graphics/SVG/1.1/DTD/svg11.dtd">
<!-- Creator: CorelDRAW 2018 (64-Bit) -->
<svg xmlns="http://www.w3.org/2000/svg" xml:space="preserve" width="21.1666mm" height="21.1666mm" version="1.1" style="shape-rendering:geometricPrecision; text-rendering:geometricPrecision; image-rendering:optimizeQuality; fill-rule:evenodd; clip-rule:evenodd"
viewBox="0 0 508.81 508.81"
 xmlns:xlink="http://www.w3.org/1999/xlink">
 <defs>
  <style type="text/css">
   <![CDATA[
    .fil0 {fill:#452E74}
    .fil1 {fill:#674AA1}
    .fil2 {fill:#785CB0}
   ]]>
  </style>
 </defs>
 <g id="Layer_x0020_1">
  <metadata id="CorelCorpID_0Corel-Layer"/>
  <g id="_2594642917136">
   <circle class="fil0" cx="254.4" cy="254.4" r="254.41"/>
   <path class="fil1" d="M149.73 330.39c0,17.22 1.06,28.75 14.82,40.09 2.74,2.26 6.45,4.52 9.83,5.86 4.77,1.88 10.57,3.56 17.02,3.56l126 0c6.17,0 12.36,-1.51 16.69,-3.41 4.59,-2.03 8.92,-4.33 12.61,-7.98 12.84,-12.71 12.37,-23.78 12.37,-40.09 0,-9.97 -1.8,-20.66 -3.72,-29.12 -4.05,-17.74 -12.86,-36.25 -29.93,-44.59 -6.39,-3.12 -13.99,-4.73 -21.75,-4.73 -10.8,0 -34.54,33.69 -76.98,11.77 -6.99,-3.61 -15.08,-11.77 -23.04,-11.77 -28.99,0 -45.36,24.7 -50.29,50.21 -0.93,4.79 -1.93,9.4 -2.52,14.15 -0.65,5.27 -1.12,10.41 -1.12,16.04zm42.65 -144.13c0,7.71 -0.12,11.09 1.85,18.73 0.57,2.2 1.04,3.48 1.75,5.6l3.35 7.43c14.81,27.17 47.61,39.59 78.15,26.85 3.96,-1.65 10.71,-5.85 13.81,-8.74 6.93,-6.48 12.36,-11.88 16.63,-21.12 12.33,-26.66 3.8,-57.07 -19.24,-74.57 -5.76,-4.38 -12.86,-7.76 -19.82,-9.6 -4.19,-1.1 -8.67,-1.76 -13.21,-1.95l-5.81 0c-8.15,0.35 -16.24,2.18 -22.99,5.55 -19.14,9.55 -34.47,29.9 -34.47,51.81z"/>
   <path class="fil2" d="M254.4 379.91l63 0c6.17,0 12.36,-1.51 16.69,-3.41 4.59,-2.03 8.92,-4.33 12.61,-7.98 12.84,-12.71 12.37,-23.78 12.37,-40.09 0,-9.97 -1.8,-20.66 -3.72,-29.12 -4.05,-17.74 -12.86,-36.25 -29.93,-44.59 -6.39,-3.12 -13.99,-4.73 -21.75,-4.73 -8.18,0 -23.77,19.3 -49.27,19.17l0 110.75zm0 -130.03l0 -120.98 1.26 0c4.54,0.19 9.02,0.85 13.21,1.95 6.95,1.84 14.05,5.21 19.82,9.6 23.04,17.5 31.56,47.91 19.24,74.57 -4.27,9.24 -9.7,14.64 -16.63,21.12 -3.1,2.9 -9.84,7.09 -13.81,8.74 -7.66,3.19 -15.46,4.8 -23.09,5z"/>
  </g>
 </g>
</svg>
