<?xml version="1.0" encoding="UTF-8"?>
<!DOCTYPE svg PUBLIC "-//W3C//DTD SVG 1.1//EN" "http://www.w3.org/Graphics/SVG/1.1/DTD/svg11.dtd">
<!-- Creator: CorelDRAW 2018 (64-Bit) -->
<svg xmlns="http://www.w3.org/2000/svg" xml:space="preserve" width="18.4688mm" height="21.1667mm" version="1.1" style="shape-rendering:geometricPrecision; text-rendering:geometricPrecision; image-rendering:optimizeQuality; fill-rule:evenodd; clip-rule:evenodd"
viewBox="0 0 1214.39 1391.79"
 xmlns:xlink="http://www.w3.org/1999/xlink">
 <defs>
  <style type="text/css">
   <![CDATA[
    .fil0 {fill:#452E74;fill-rule:nonzero}
   ]]>
  </style>
 </defs>
 <g id="Layer_x0020_1">
  <metadata id="CorelCorpID_0Corel-Layer"/>
  <path class="fil0" d="M355.87 364.02l0 32.59c0,29.42 8.94,60.51 22.05,88.41 15.56,33.14 36.74,61.49 55.75,77.31 5.09,4.24 8.56,7.42 11.8,10.39 6.45,5.96 12.18,11.22 22.37,17.35l8.48 5.2c10.22,6.32 18.89,11.67 31.57,16.7 37.62,14.9 77.41,22.15 116.29,20.17 36.28,-1.84 71.77,-11.77 103.98,-31.02l0.06 -0.06c4.05,-2.4 6.84,-3.86 9.43,-5.21 3.24,-1.62 6.21,-3.18 10.48,-6.09 9.15,-6.26 15.26,-11.76 22.01,-17.87 3.64,-3.27 7.46,-6.72 12.39,-10.86 3.79,-3.18 9.26,-8.79 14.5,-14.65 5.47,-6.12 10.64,-12.44 13.38,-16.54 19.89,-29.66 32.02,-52.93 39.07,-77.58 7.06,-24.67 9.23,-51.51 9.23,-88.24 0,-29.46 -7.87,-58.4 -19.62,-84.45 -14.89,-33 -35.86,-61.29 -55.06,-80.38 -47.91,-47.59 -112.48,-71.47 -177.04,-71.47 -64.34,0 -128.65,23.78 -176.41,71.47 -19.33,19.38 -40.35,47.59 -55.19,80.48 -11.7,25.93 -19.52,54.75 -19.52,84.36zm434.59 613.52c-56.29,-19.19 -117.04,-29.41 -183.17,-29.41 -53.85,0 -109.74,8.4 -162.29,23.51 -52.74,15.17 -101.96,37.05 -142.15,63.89 -21.96,14.67 -39.55,27.95 -55.69,42.53 -16.07,14.52 -30.71,30.33 -46.76,50.11 -14.39,17.7 -28.11,38.9 -39.47,61.46 -10.55,20.95 -19.03,43.02 -24,64.41 -5.84,25.1 -7.19,44.07 -8.26,59.09 -1.78,25.09 -2.93,41.08 -19.19,57.86 -7.82,8.09 -16.17,14.51 -26.44,18.03 -10.64,3.62 -22.55,3.92 -36.78,-0.59 -10.78,-3.49 -19.79,-8.62 -26.97,-15.76 -7.31,-7.26 -12.54,-16.38 -15.64,-27.67 -6.99,-25.45 -3.26,-63.71 5.83,-102.62 10.65,-45.63 28.79,-93.28 45.32,-121.72 1.75,-3 3.26,-6.02 4.75,-8.98 2.37,-4.69 4.71,-9.36 8.13,-14.65 1.67,-1.49 10.94,-16.33 13.19,-19.7 12.09,-18.3 27.73,-37.77 44.55,-56.07 17.35,-18.88 36.11,-36.68 53.67,-50.81 95.31,-76.7 209.55,-124.18 328.11,-141.43 119.93,-17.44 244.45,-3.96 358.4,41.47 25.58,10.21 48.31,20.55 69.88,32.15 21.7,11.66 42.5,24.73 64.17,40.35 9.55,7.99 27.27,22.26 37.39,28.73 30.3,23.91 52.46,46.94 71.51,71.4 18.74,24.07 34.53,49.73 52.24,79.17 16.09,26.65 33.54,73.8 43.97,119.18 9.13,39.68 12.99,78.84 6.19,103.54 -3.08,11.23 -9.57,21.64 -18.22,29.7 -7.17,6.67 -15.97,11.86 -25.62,14.66 -9.87,2.87 -20.62,3.24 -31.48,0.25 -11.09,-3.04 -22.13,-9.53 -32.21,-20.35 -15.66,-16.8 -15.79,-26.72 -16,-43.54 -0.07,-5.39 -0.15,-11.8 -1.17,-19.82 -3.33,-26.16 -8,-51.24 -15.48,-75.2 -7.33,-23.53 -17.42,-45.96 -31.63,-67.21 -6.81,-10.18 -20.65,-29.52 -33.68,-46.17 -8.79,-11.24 -17.06,-21.09 -22.09,-25.55l-36.35 -31.1c-48.46,-35.86 -100.35,-63.99 -156.55,-83.15zm-545.11 -483.93c-11.4,-36.99 -17.73,-76.54 -17.73,-114.77 0,-53.73 11.18,-101.91 28.97,-144.17 21.25,-50.47 51.96,-92.31 84.34,-125.01 14.72,-14.95 33.35,-29.96 53.18,-43.38 20.05,-13.58 41.35,-25.51 61.12,-34.05 41.1,-17.81 79.46,-27.79 118.37,-31.03 38.78,-3.24 77.89,0.25 120.6,9.43 33.32,7.17 65.99,20.23 96.18,37.12 32.2,17.98 61.66,40.44 86.16,64.79 16.39,16.3 30.54,34.12 43.06,52.94 12.37,18.58 23.22,38.23 33.2,58.46 22.45,45.52 33.81,101.2 33.81,156.7 0,55.13 -11.2,110.53 -33.81,156.09l-1.07 2.15c-9.58,19.32 -19.56,39.41 -32.51,56.89l-5.37 7.37c-4.5,6.22 -9.05,12.49 -14.34,18.72 -8.42,9.19 -25.26,27.96 -34.38,35.12 -11.53,9.11 -18.46,15.52 -24.03,20.67 -14.02,12.93 -20.23,18.67 -70,43.62 -50.72,25.44 -107.49,37.95 -164.21,37.78 -57.12,-0.18 -114.33,-13.2 -165.38,-38.76 -32.84,-16.45 -59.09,-33.4 -82.48,-53.6 -23.43,-20.23 -43.86,-43.56 -65.04,-72.74 -20.5,-28.25 -37.16,-63.02 -48.64,-100.33z"/>
 </g>
</svg>
