<?xml version="1.0" encoding="UTF-8"?>
<!DOCTYPE svg PUBLIC "-//W3C//DTD SVG 1.1//EN" "http://www.w3.org/Graphics/SVG/1.1/DTD/svg11.dtd">
<!-- Creator: CorelDRAW 2018 (64-Bit) -->
<svg xmlns="http://www.w3.org/2000/svg" xml:space="preserve" width="21.1668mm" height="3.2448mm" version="1.1" style="shape-rendering:geometricPrecision; text-rendering:geometricPrecision; image-rendering:optimizeQuality; fill-rule:evenodd; clip-rule:evenodd"
viewBox="0 0 343.81 52.71"
 xmlns:xlink="http://www.w3.org/1999/xlink">
 <defs>
  <style type="text/css">
   <![CDATA[
    .fil0 {fill:#999999}
   ]]>
  </style>
 </defs>
 <g id="Layer_x0020_1">
  <metadata id="CorelCorpID_0Corel-Layer"/>
  <g id="_2594530198336">
   <path class="fil0" d="M18.57 16.43c-1.22,0 -13.55,1.26 -15.66,1.4 -1.76,0.12 -2.79,1.38 -2.91,2.74l0 0.5c0.06,0.74 0.4,1.47 1.05,2.04 0.2,0.17 0.23,0.16 0.42,0.33l9.29 8.2c0.22,0.18 0.26,0.17 0.48,0.38 0.55,0.52 1.13,1.07 1.74,1.48 -0.23,0.47 -3.65,15.74 -3.65,16.31 0,1.47 1.35,2.9 2.9,2.9 1.26,0 2.78,-1.14 4.02,-1.89l9.34 -5.58c0.65,-0.39 1.25,-0.78 1.88,-1.12l12.97 7.74c1.3,0.79 2.79,1.41 4.24,0.01 1.67,-1.62 0.61,-3.62 0.08,-6.15l-2.8 -12.23 9.69 -8.45c1.13,-0.95 3.29,-2.49 3.29,-4 0,-1.89 -1.05,-3.03 -2.81,-3.2l-15.76 -1.41c-0.04,-0.5 -5.17,-12.25 -5.61,-13.28 -0.31,-0.73 -0.57,-1.52 -1.02,-2.09 -1.1,-1.4 -3.36,-1.42 -4.5,-0.06 -0.65,0.77 -4.94,11.16 -5.76,13.13 -0.21,0.49 -0.88,1.87 -0.92,2.3z"/>
   <path class="fil0" d="M90.78 16.43c-1.22,0 -13.55,1.26 -15.66,1.4 -1.76,0.12 -2.79,1.38 -2.91,2.74l0 0.5c0.06,0.74 0.4,1.47 1.05,2.04 0.2,0.17 0.23,0.16 0.42,0.33l9.29 8.2c0.22,0.18 0.26,0.17 0.48,0.38 0.55,0.52 1.13,1.07 1.74,1.48 -0.23,0.47 -3.65,15.74 -3.65,16.31 0,1.47 1.35,2.9 2.9,2.9 1.26,0 2.78,-1.14 4.02,-1.89l9.34 -5.58c0.65,-0.39 1.25,-0.78 1.88,-1.12l12.97 7.74c1.3,0.79 2.79,1.41 4.24,0.01 1.67,-1.62 0.61,-3.62 0.08,-6.15l-2.8 -12.23 9.69 -8.45c1.13,-0.95 3.29,-2.49 3.29,-4 0,-1.89 -1.05,-3.03 -2.81,-3.2l-15.76 -1.41c-0.04,-0.5 -5.17,-12.25 -5.61,-13.28 -0.31,-0.73 -0.57,-1.52 -1.02,-2.09 -1.1,-1.4 -3.36,-1.42 -4.5,-0.06 -0.65,0.77 -4.94,11.16 -5.76,13.13 -0.21,0.49 -0.88,1.87 -0.92,2.3z"/>
   <path class="fil0" d="M162.99 16.43c-1.22,0 -13.55,1.26 -15.66,1.4 -1.76,0.12 -2.79,1.38 -2.9,2.74l0 0.5c0.06,0.74 0.4,1.47 1.05,2.04 0.2,0.17 0.23,0.16 0.42,0.33l9.29 8.2c0.22,0.18 0.26,0.17 0.48,0.38 0.55,0.52 1.13,1.07 1.74,1.48 -0.23,0.47 -3.65,15.74 -3.65,16.31 0,1.47 1.35,2.9 2.9,2.9 1.26,0 2.78,-1.14 4.02,-1.89l9.34 -5.58c0.65,-0.39 1.25,-0.78 1.88,-1.12l12.97 7.74c1.3,0.79 2.79,1.41 4.24,0.01 1.67,-1.62 0.61,-3.62 0.08,-6.15l-2.8 -12.23 9.69 -8.45c1.13,-0.95 3.29,-2.49 3.29,-4 0,-1.89 -1.05,-3.03 -2.81,-3.2l-15.76 -1.41c-0.04,-0.5 -5.17,-12.25 -5.61,-13.28 -0.32,-0.73 -0.57,-1.52 -1.02,-2.09 -1.1,-1.4 -3.36,-1.42 -4.5,-0.06 -0.65,0.77 -4.94,11.16 -5.76,13.13 -0.21,0.49 -0.88,1.87 -0.92,2.3z"/>
   <path class="fil0" d="M235.21 16.43c-1.22,0 -13.55,1.26 -15.66,1.4 -1.76,0.12 -2.79,1.38 -2.9,2.74l0 0.5c0.06,0.74 0.4,1.47 1.05,2.04 0.2,0.17 0.23,0.16 0.42,0.33l9.29 8.2c0.22,0.18 0.26,0.17 0.48,0.38 0.55,0.52 1.13,1.07 1.74,1.48 -0.23,0.47 -3.65,15.74 -3.65,16.31 0,1.47 1.35,2.9 2.9,2.9 1.26,0 2.78,-1.14 4.02,-1.89l9.34 -5.58c0.65,-0.39 1.25,-0.78 1.88,-1.12l12.97 7.74c1.3,0.79 2.79,1.41 4.24,0.01 1.67,-1.62 0.61,-3.62 0.08,-6.15l-2.8 -12.23 9.69 -8.45c1.13,-0.95 3.29,-2.49 3.29,-4 0,-1.89 -1.05,-3.03 -2.81,-3.2l-15.76 -1.41c-0.04,-0.5 -5.17,-12.25 -5.61,-13.28 -0.32,-0.73 -0.57,-1.52 -1.02,-2.09 -1.11,-1.4 -3.36,-1.42 -4.5,-0.06 -0.65,0.77 -4.94,11.16 -5.76,13.13 -0.21,0.49 -0.88,1.87 -0.92,2.3z"/>
   <path class="fil0" d="M307.43 16.43c-1.22,0 -13.55,1.26 -15.66,1.4 -1.76,0.12 -2.79,1.38 -2.9,2.74l0 0.5c0.06,0.74 0.4,1.47 1.05,2.04 0.2,0.17 0.23,0.16 0.42,0.33l9.29 8.2c0.22,0.18 0.26,0.17 0.48,0.38 0.55,0.52 1.13,1.07 1.74,1.48 -0.23,0.47 -3.65,15.74 -3.65,16.31 0,1.47 1.35,2.9 2.9,2.9 1.26,0 2.78,-1.14 4.02,-1.89l9.34 -5.58c0.65,-0.39 1.25,-0.78 1.88,-1.12l12.97 7.74c1.3,0.79 2.79,1.41 4.24,0.01 1.67,-1.62 0.61,-3.62 0.09,-6.15l-2.8 -12.23 9.69 -8.45c1.13,-0.95 3.3,-2.49 3.3,-4 0,-1.89 -1.06,-3.03 -2.81,-3.2l-15.76 -1.41c-0.04,-0.5 -5.17,-12.25 -5.61,-13.28 -0.32,-0.73 -0.57,-1.52 -1.02,-2.09 -1.1,-1.4 -3.36,-1.42 -4.5,-0.06 -0.65,0.77 -4.94,11.16 -5.76,13.13 -0.21,0.49 -0.88,1.87 -0.92,2.3z"/>
  </g>
 </g>
</svg>
